<svg width="20" height="20" viewBox="0 0 20 20" fill="none" xmlns="http://www.w3.org/2000/svg">
<path d="M10.0001 5.99472C7.7833 5.99472 5.99423 7.78378 5.99423 10.0006C5.99423 12.2174 7.7833 14.0064 10.0001 14.0064C12.2169 14.0064 14.006 12.2174 14.006 10.0006C14.006 7.78378 12.2169 5.99472 10.0001 5.99472ZM10.0001 12.6041C8.5665 12.6041 7.39658 11.4342 7.39658 10.0006C7.39658 8.56699 8.5665 7.39707 10.0001 7.39707C11.4337 7.39707 12.6036 8.56699 12.6036 10.0006C12.6036 11.4342 11.4337 12.6041 10.0001 12.6041ZM14.17 4.89707C13.6524 4.89707 13.2345 5.31503 13.2345 5.83261C13.2345 6.35019 13.6524 6.76816 14.17 6.76816C14.6876 6.76816 15.1056 6.35214 15.1056 5.83261C15.1057 5.70971 15.0816 5.58799 15.0347 5.47441C14.9877 5.36084 14.9188 5.25764 14.8319 5.17074C14.745 5.08383 14.6418 5.01493 14.5282 4.96797C14.4146 4.921 14.2929 4.89691 14.17 4.89707ZM17.8087 10.0006C17.8087 8.92246 17.8185 7.8541 17.7579 6.77793C17.6974 5.52792 17.4122 4.41855 16.4981 3.50449C15.5821 2.58847 14.4747 2.30527 13.2247 2.24472C12.1466 2.18417 11.0782 2.19394 10.002 2.19394C8.92392 2.19394 7.85556 2.18417 6.77939 2.24472C5.52939 2.30527 4.42001 2.59042 3.50595 3.50449C2.58994 4.4205 2.30673 5.52792 2.24619 6.77793C2.18564 7.85605 2.19541 8.92441 2.19541 10.0006C2.19541 11.0768 2.18564 12.1471 2.24619 13.2232C2.30673 14.4732 2.59189 15.5826 3.50595 16.4967C4.42197 17.4127 5.52939 17.6959 6.77939 17.7564C7.85751 17.817 8.92587 17.8072 10.002 17.8072C11.0802 17.8072 12.1485 17.817 13.2247 17.7564C14.4747 17.6959 15.5841 17.4107 16.4981 16.4967C17.4142 15.5807 17.6974 14.4732 17.7579 13.2232C17.8204 12.1471 17.8087 11.0787 17.8087 10.0006ZM16.0899 14.6061C15.9474 14.9615 15.7755 15.2271 15.5001 15.5006C15.2247 15.776 14.961 15.9478 14.6056 16.0904C13.5782 16.4986 11.1388 16.4068 10.0001 16.4068C8.86142 16.4068 6.42001 16.4986 5.39267 16.0924C5.0372 15.9498 4.77158 15.7779 4.49814 15.5025C4.22275 15.2271 4.05087 14.9635 3.9083 14.608C3.50205 13.5787 3.59384 11.1393 3.59384 10.0006C3.59384 8.86191 3.50205 6.4205 3.9083 5.39316C4.05087 5.03769 4.22275 4.77207 4.49814 4.49863C4.77353 4.22519 5.0372 4.05136 5.39267 3.90878C6.42001 3.50253 8.86142 3.59433 10.0001 3.59433C11.1388 3.59433 13.5802 3.50253 14.6075 3.90878C14.963 4.05136 15.2286 4.22324 15.502 4.49863C15.7774 4.77402 15.9493 5.03769 16.0919 5.39316C16.4981 6.4205 16.4063 8.86191 16.4063 10.0006C16.4063 11.1393 16.4981 13.5787 16.0899 14.6061Z" fill="#CC9933"/>
</svg>
