<svg width="20" height="20" viewBox="0 0 20 20" fill="none" xmlns="http://www.w3.org/2000/svg">
<path d="M4.15243 5.99823C5.15943 5.99823 5.97577 5.18189 5.97577 4.1749C5.97577 3.1679 5.15943 2.35156 4.15243 2.35156C3.14544 2.35156 2.3291 3.1679 2.3291 4.1749C2.3291 5.18189 3.14544 5.99823 4.15243 5.99823Z" fill="#CC9933"/>
<path d="M7.69743 7.37891V17.4947H10.8383V12.4922C10.8383 11.1722 11.0866 9.89391 12.7233 9.89391C14.3374 9.89391 14.3574 11.4031 14.3574 12.5756V17.4956H17.4999V11.9481C17.4999 9.22307 16.9133 7.12891 13.7283 7.12891C12.1991 7.12891 11.1741 7.96807 10.7549 8.76224H10.7124V7.37891H7.69743ZM2.5791 7.37891H5.72493V17.4947H2.5791V7.37891Z" fill="#CC9933"/>
</svg>
