<svg width="107" height="73" viewBox="0 0 107 73" fill="none" xmlns="http://www.w3.org/2000/svg">
<path d="M11.033 49.9353C11.033 50.6823 10.885 51.3452 10.5889 51.9239C10.2995 52.4959 9.89574 52.9703 9.37757 53.3472C8.86613 53.724 8.30421 54 7.69183 54.1749C7.07944 54.3499 6.43005 54.4374 5.74364 54.4374H4.13865V58.7779C4.13865 59.0134 4.17566 59.2221 4.24968 59.4038C4.33044 59.5787 4.49195 59.7133 4.73421 59.8075C4.85534 59.8546 5.06732 59.8984 5.37015 59.9388C5.67971 59.9791 5.96234 60.0027 6.21807 60.0094V60.7261H0.0706598V60.0094C0.232168 59.996 0.464336 59.9724 0.767164 59.9388C1.07672 59.9051 1.29207 59.8614 1.4132 59.8075C1.61508 59.72 1.75977 59.5922 1.84725 59.4239C1.94146 59.2557 1.98857 59.0404 1.98857 58.7779V48.4414C1.98857 48.2059 1.95492 47.9939 1.88763 47.8054C1.82033 47.617 1.66219 47.4757 1.4132 47.3815C1.15748 47.294 0.901754 47.2334 0.646033 47.1998C0.397041 47.1594 0.181697 47.1325 0 47.119V46.4023H6.54108C7.87353 46.4023 8.95361 46.7254 9.78134 47.3714C10.6158 48.0107 11.033 48.8653 11.033 49.9353ZM7.96437 52.3781C8.19318 52.0551 8.34459 51.722 8.41862 51.3788C8.49264 51.0289 8.52965 50.716 8.52965 50.44C8.52965 50.0565 8.48255 49.6662 8.38833 49.2691C8.30085 48.8721 8.14607 48.5255 7.924 48.2294C7.68846 47.9131 7.37891 47.6675 6.99532 47.4925C6.61174 47.3176 6.13395 47.2301 5.56194 47.2301H4.13865V53.5592H5.16826C5.89505 53.5592 6.48388 53.4481 6.93476 53.2261C7.39237 52.9973 7.73557 52.7146 7.96437 52.3781Z" fill="white"/>
<path d="M36.7686 60.7261H32.9125C32.0579 59.3869 31.284 58.2295 30.5909 57.2537C29.9045 56.2779 29.1575 55.2718 28.3499 54.2355H26.8863V58.7779C26.8863 59.0134 26.9233 59.2221 26.9973 59.4038C27.0713 59.5787 27.2295 59.7133 27.4717 59.8075C27.5929 59.8546 27.8049 59.8984 28.1077 59.9388C28.4105 59.9791 28.6662 60.0027 28.8748 60.0094V60.7261H22.8183V60.0094C22.9798 59.996 23.212 59.9724 23.5148 59.9388C23.8243 59.9051 24.0397 59.8614 24.1608 59.8075C24.3627 59.72 24.5074 59.5922 24.5949 59.4239C24.6891 59.2557 24.7362 59.0404 24.7362 58.7779V48.4212C24.7362 48.1857 24.7025 47.977 24.6353 47.7954C24.568 47.6137 24.4098 47.4757 24.1608 47.3815C23.9926 47.3209 23.7739 47.2671 23.5047 47.22C23.2355 47.1661 23.0067 47.1325 22.8183 47.119V46.4023H29.43C30.0357 46.4023 30.6043 46.4663 31.136 46.5941C31.6676 46.7153 32.1488 46.9138 32.5794 47.1897C32.9967 47.4589 33.3298 47.8122 33.5788 48.2496C33.8278 48.6803 33.9523 49.2018 33.9523 49.8142C33.9523 50.366 33.8681 50.8539 33.6999 51.2779C33.5317 51.7018 33.2827 52.0686 32.9529 52.3781C32.6501 52.6675 32.2867 52.9199 31.8627 53.1352C31.4388 53.3438 30.9711 53.5222 30.4596 53.6702C31.1662 54.6056 31.7517 55.393 32.216 56.0323C32.6871 56.6716 33.2625 57.4488 33.9422 58.364C34.2383 58.7678 34.5041 59.0673 34.7396 59.2624C34.9819 59.4509 35.2208 59.6056 35.4563 59.7268C35.6313 59.8143 35.85 59.8816 36.1124 59.9287C36.3749 59.9758 36.5936 60.0027 36.7686 60.0094V60.7261ZM31.459 50.0464C31.459 49.1783 31.21 48.4919 30.712 47.9871C30.214 47.4757 29.5108 47.22 28.6023 47.22H26.8863V53.3674H28.2086C29.1373 53.3674 29.9112 53.0713 30.5303 52.4791C31.1494 51.8802 31.459 51.0693 31.459 50.0464Z" fill="white"/>
<path d="M53.7221 60.7261H47.2718V60.0094C47.4535 59.996 47.716 59.9758 48.0592 59.9488C48.4024 59.9219 48.6447 59.8816 48.786 59.8277C49.0081 59.7402 49.1696 59.6225 49.2705 59.4744C49.3714 59.3196 49.4219 59.1077 49.4219 58.8385V48.4616C49.4219 48.226 49.3849 48.0309 49.3109 47.8761C49.2369 47.7146 49.0619 47.58 48.786 47.4723C48.5841 47.3916 48.3284 47.3176 48.0188 47.2503C47.716 47.1762 47.467 47.1325 47.2718 47.119V46.4023H53.7221V47.119C53.5135 47.1258 53.2645 47.1527 52.9751 47.1998C52.6857 47.2402 52.4334 47.294 52.218 47.3613C51.9623 47.4421 51.7907 47.5733 51.7032 47.755C51.6157 47.9367 51.572 48.1386 51.572 48.3606V58.7274C51.572 58.9495 51.6191 59.148 51.7133 59.323C51.8143 59.4912 51.9825 59.6258 52.218 59.7268C52.3593 59.7806 52.5882 59.8412 52.9044 59.9085C53.2275 59.969 53.5 60.0027 53.7221 60.0094V60.7261Z" fill="white"/>
<path d="M82.8896 60.7261H76.5605V60.0094C76.7893 60.0027 77.0821 59.9791 77.4387 59.9388C77.8021 59.8984 78.0511 59.8412 78.1857 59.7671C78.3943 59.6393 78.5457 59.4946 78.64 59.3331C78.7409 59.1649 78.7914 58.9562 78.7914 58.7073V48.29H78.64L73.7543 60.4939H73.2496L68.5962 48.0376H68.4649V56.5875C68.4649 57.4152 68.5154 58.0444 68.6164 58.4751C68.724 58.9058 68.8855 59.2153 69.1009 59.4038C69.2489 59.5451 69.5551 59.6797 70.0195 59.8075C70.4838 59.9354 70.7866 60.0027 70.9279 60.0094V60.7261H65.1439V60.0094C65.4468 59.9825 65.763 59.932 66.0928 59.858C66.4293 59.784 66.6884 59.6729 66.87 59.5249C67.1056 59.3365 67.2671 59.0471 67.3546 58.6568C67.4421 58.2665 67.4858 57.6137 67.4858 56.6985V49.3701C67.4858 48.9461 67.4353 48.5995 67.3344 48.3303C67.2334 48.0612 67.0888 47.8425 66.9003 47.6742C66.6917 47.4925 66.436 47.3579 66.1332 47.2705C65.8303 47.183 65.5309 47.1325 65.2348 47.119V46.4023H70.1204L74.2187 57.1426L77.7214 48.1587C77.8492 47.829 77.9569 47.4858 78.0444 47.1291C78.1386 46.7657 78.1891 46.5235 78.1958 46.4023H82.8695V47.119C82.681 47.1258 82.4388 47.156 82.1427 47.2099C81.8533 47.2637 81.6413 47.3142 81.5067 47.3613C81.2779 47.4421 81.1232 47.5766 81.0424 47.7651C80.9616 47.9535 80.9213 48.1587 80.9213 48.3808V58.7073C80.9213 58.9428 80.9616 59.1413 81.0424 59.3028C81.1232 59.4643 81.2779 59.6056 81.5067 59.7268C81.6279 59.7941 81.8432 59.858 82.1528 59.9186C82.4623 59.9724 82.7079 60.0027 82.8896 60.0094V60.7261Z" fill="white"/>
<path d="M107 56.5067L106.727 60.7261H94.8364V60.0094C95.0383 59.996 95.3075 59.969 95.644 59.9287C95.9804 59.8816 96.1991 59.8344 96.3001 59.7873C96.5154 59.6864 96.6635 59.5552 96.7442 59.3937C96.8317 59.2322 96.8755 59.0269 96.8755 58.7779V48.4818C96.8755 48.2597 96.8384 48.0645 96.7644 47.8963C96.6904 47.7213 96.5356 47.58 96.3001 47.4723C96.1184 47.3849 95.8728 47.3075 95.5632 47.2402C95.2604 47.1729 95.0181 47.1325 94.8364 47.119V46.4023H105.92V49.8546H105.163C105.028 49.3431 104.736 48.8014 104.285 48.2294C103.84 47.6507 103.417 47.3344 103.013 47.2805C102.804 47.2536 102.555 47.2334 102.266 47.22C101.976 47.2065 101.647 47.1998 101.277 47.1998H99.0255V52.893H100.641C101.159 52.893 101.536 52.8458 101.771 52.7516C102.013 52.6507 102.225 52.4858 102.407 52.257C102.555 52.0619 102.68 51.8028 102.781 51.4798C102.888 51.15 102.959 50.8405 102.993 50.5511H103.75V56.1534H102.993C102.966 55.8304 102.892 55.4905 102.771 55.1339C102.656 54.7705 102.535 54.508 102.407 54.3465C102.198 54.0841 101.96 53.9125 101.69 53.8317C101.428 53.751 101.078 53.7106 100.641 53.7106H99.0255V58.0107C99.0255 58.4414 99.0558 58.7813 99.1164 59.0303C99.1769 59.2793 99.2947 59.4677 99.4697 59.5955C99.6446 59.7234 99.8835 59.8075 100.186 59.8479C100.489 59.8816 100.92 59.8984 101.478 59.8984C101.701 59.8984 101.993 59.8984 102.357 59.8984C102.72 59.8984 103.026 59.8849 103.275 59.858C103.531 59.8311 103.793 59.784 104.063 59.7167C104.338 59.6427 104.534 59.5451 104.648 59.4239C104.958 59.1009 105.281 58.613 105.617 57.9603C105.96 57.3008 106.179 56.8163 106.273 56.5067H107Z" fill="white"/>
<path d="M25.6251 72.3565H23.9V72.1492C24.0518 72.1395 24.1773 72.12 24.2766 72.0908C24.3778 72.0616 24.4284 72.0256 24.4284 71.9828C24.4284 71.9653 24.4264 71.9439 24.4225 71.9186C24.4186 71.8933 24.4128 71.8709 24.405 71.8515L24.0606 70.9233H22.6099C22.5554 71.0595 22.5106 71.1782 22.4756 71.2794C22.4425 71.3806 22.4124 71.474 22.3851 71.5596C22.3598 71.6433 22.3423 71.7114 22.3326 71.7639C22.3229 71.8165 22.318 71.8593 22.318 71.8923C22.318 71.9702 22.3793 72.0305 22.5019 72.0733C22.6245 72.1161 22.7626 72.1414 22.9164 72.1492V72.3565H21.3577V72.1492C21.4083 72.1453 21.4715 72.1346 21.5474 72.1171C21.6233 72.0976 21.6856 72.0723 21.7342 72.0412C21.812 71.9887 21.8724 71.9342 21.9152 71.8777C21.958 71.8194 21.9998 71.7396 22.0407 71.6384C22.2489 71.1188 22.4785 70.535 22.7296 69.887C22.9806 69.239 23.2044 68.6621 23.4009 68.1561H23.6344L25.0151 71.7289C25.0443 71.8048 25.0773 71.8661 25.1143 71.9128C25.1513 71.9595 25.2029 72.0052 25.269 72.05C25.3138 72.0772 25.3722 72.1006 25.4442 72.12C25.5162 72.1375 25.5765 72.1473 25.6251 72.1492V72.3565ZM23.9555 70.6635L23.3279 69.0581L22.712 70.6635H23.9555Z" fill="white"/>
<path d="M32.2453 71.1363L32.1664 72.3565H28.728V72.1492C28.7863 72.1453 28.8642 72.1375 28.9615 72.1259C29.0588 72.1122 29.122 72.0986 29.1512 72.085C29.2135 72.0558 29.2563 72.0179 29.2796 71.9712C29.3049 71.9245 29.3176 71.8651 29.3176 71.7931V68.8158C29.3176 68.7516 29.3069 68.6951 29.2855 68.6465C29.2641 68.5959 29.2193 68.555 29.1512 68.5239C29.0987 68.4986 29.0276 68.4762 28.9381 68.4568C28.8505 68.4373 28.7805 68.4256 28.728 68.4217V68.2145H31.9329V69.2128H31.714C31.6751 69.0649 31.5904 68.9082 31.4601 68.7428C31.3316 68.5755 31.209 68.484 31.0923 68.4684C31.032 68.4607 30.96 68.4548 30.8763 68.4509C30.7926 68.447 30.6973 68.4451 30.5902 68.4451H29.9393V70.0914H30.4063C30.5562 70.0914 30.6651 70.0777 30.7333 70.0505C30.8033 70.0213 30.8646 69.9736 30.9171 69.9075C30.96 69.851 30.996 69.7761 31.0251 69.6827C31.0563 69.5874 31.0767 69.4979 31.0864 69.4142H31.3054V71.0342H31.0864C31.0787 70.9408 31.0573 70.8425 31.0222 70.7394C30.9891 70.6343 30.9541 70.5584 30.9171 70.5117C30.8568 70.4358 30.7877 70.3862 30.7099 70.3628C30.634 70.3395 30.5328 70.3278 30.4063 70.3278H29.9393V71.5713C29.9393 71.6958 29.9481 71.7941 29.9656 71.8661C29.9831 71.9381 30.0171 71.9926 30.0677 72.0295C30.1183 72.0665 30.1874 72.0908 30.275 72.1025C30.3625 72.1122 30.4871 72.1171 30.6486 72.1171C30.7128 72.1171 30.7975 72.1171 30.9025 72.1171C31.0076 72.1171 31.0962 72.1132 31.1682 72.1054C31.2421 72.0976 31.318 72.084 31.3958 72.0646C31.4756 72.0432 31.5321 72.0149 31.5651 71.9799C31.6547 71.8865 31.7481 71.7454 31.8454 71.5567C31.9446 71.366 32.0078 71.2259 32.0351 71.1363H32.2453Z" fill="white"/>
<path d="M38.2349 70.4562C38.3225 70.5535 38.3867 70.6606 38.4275 70.7773C38.4703 70.8921 38.4918 71.0264 38.4918 71.1801C38.4918 71.546 38.3565 71.8476 38.086 72.085C37.8155 72.3224 37.4799 72.4411 37.079 72.4411C36.8941 72.4411 36.7093 72.4129 36.5244 72.3565C36.3395 72.2981 36.18 72.228 36.0457 72.1463L35.9202 72.3594H35.6867L35.6458 70.9408H35.8822C35.9309 71.1159 35.9873 71.2745 36.0515 71.4166C36.1177 71.5567 36.2043 71.688 36.3113 71.8106C36.4125 71.9254 36.5302 72.0169 36.6645 72.085C36.8007 72.1531 36.9583 72.1872 37.1374 72.1872C37.2716 72.1872 37.3884 72.1696 37.4876 72.1346C37.5888 72.0996 37.6706 72.05 37.7328 71.9858C37.7951 71.9215 37.8408 71.8466 37.87 71.761C37.9012 71.6734 37.9167 71.5732 37.9167 71.4603C37.9167 71.2949 37.87 71.1412 37.7766 70.9992C37.6832 70.8552 37.5441 70.7462 37.3592 70.6722C37.2327 70.6216 37.0878 70.5662 36.9243 70.5059C36.7608 70.4436 36.6197 70.3852 36.501 70.3307C36.2675 70.2256 36.0856 70.0884 35.9552 69.9192C35.8268 69.7479 35.7626 69.5251 35.7626 69.2507C35.7626 69.0931 35.7947 68.9462 35.8589 68.81C35.9231 68.6737 36.0146 68.5521 36.1333 68.4451C36.2461 68.3439 36.3794 68.2651 36.5332 68.2087C36.6869 68.1503 36.8474 68.1211 37.0148 68.1211C37.2055 68.1211 37.3758 68.1503 37.5256 68.2087C37.6774 68.267 37.8155 68.3351 37.9401 68.413L38.0598 68.2145H38.2933L38.3166 69.5893H38.0802C38.0374 69.4317 37.9887 69.2809 37.9342 69.1369C37.8817 68.9929 37.8126 68.8625 37.727 68.7457C37.6433 68.6329 37.5412 68.5434 37.4205 68.4772C37.2999 68.4091 37.152 68.375 36.9768 68.375C36.792 68.375 36.6343 68.4344 36.504 68.5531C36.3736 68.6718 36.3084 68.8168 36.3084 68.988C36.3084 69.167 36.3502 69.3159 36.4339 69.4346C36.5176 69.5514 36.6392 69.6477 36.7988 69.7236C36.9408 69.7917 37.08 69.851 37.2162 69.9016C37.3543 69.9503 37.4876 70.0028 37.6161 70.0593C37.7328 70.1099 37.8447 70.1673 37.9518 70.2315C38.0607 70.2957 38.1551 70.3706 38.2349 70.4562Z" fill="white"/>
<path d="M45.3687 69.3383H45.1673C45.1498 69.2682 45.1177 69.1855 45.071 69.0902C45.0263 68.9929 44.9757 68.9014 44.9192 68.8158C44.8608 68.7263 44.7966 68.6484 44.7266 68.5823C44.6585 68.5142 44.5923 68.4753 44.5281 68.4655C44.4678 68.4577 44.3919 68.4519 44.3004 68.448C44.209 68.4441 44.1243 68.4422 44.0465 68.4422H43.8772V71.7552C43.8772 71.8194 43.8908 71.8787 43.918 71.9332C43.9453 71.9857 43.993 72.0266 44.0611 72.0558C44.0961 72.0694 44.1691 72.0879 44.28 72.1113C44.3928 72.1346 44.4804 72.1473 44.5427 72.1492V72.3565H42.587V72.1492C42.6415 72.1453 42.7242 72.1375 42.8351 72.1259C42.948 72.1142 43.0258 72.0996 43.0686 72.0821C43.1328 72.0568 43.1795 72.0208 43.2087 71.9741C43.2399 71.9254 43.2554 71.8612 43.2554 71.7814V68.4422H43.0861C43.0258 68.4422 42.9509 68.4441 42.8614 68.448C42.7719 68.45 42.6862 68.4558 42.6045 68.4655C42.5403 68.4733 42.4732 68.5122 42.4031 68.5823C42.335 68.6504 42.2718 68.7282 42.2134 68.8158C42.155 68.9034 42.1034 68.9968 42.0587 69.096C42.0139 69.1933 41.9828 69.2741 41.9653 69.3383H41.761V68.2145H45.3687V69.3383Z" fill="white"/>
<path d="M52.9813 72.3565H51.2621V72.1492C51.3088 72.1453 51.3759 72.1395 51.4635 72.1317C51.553 72.1239 51.6143 72.1122 51.6473 72.0967C51.7057 72.0733 51.7485 72.0383 51.7758 71.9916C51.803 71.9429 51.8166 71.8807 51.8166 71.8048V70.3307H49.8697V71.7727C49.8697 71.8408 49.8804 71.8982 49.9018 71.9449C49.9252 71.9916 49.9699 72.0325 50.0361 72.0675C50.0692 72.085 50.1276 72.1025 50.2112 72.12C50.2969 72.1375 50.364 72.1473 50.4126 72.1492V72.3565H48.6934V72.1492C48.7401 72.1453 48.8072 72.1395 48.8948 72.1317C48.9843 72.1239 49.0456 72.1122 49.0787 72.0967C49.1371 72.0733 49.1799 72.0383 49.2071 71.9916C49.2344 71.9429 49.248 71.8807 49.248 71.8048V68.8158C49.248 68.7535 49.2353 68.6971 49.21 68.6465C49.1847 68.594 49.141 68.5531 49.0787 68.5239C49.0262 68.4986 48.9619 68.4762 48.886 68.4568C48.8121 68.4373 48.7479 68.4256 48.6934 68.4217V68.2145H50.4126V68.4217C50.3582 68.4237 50.291 68.4324 50.2112 68.448C50.1334 68.4636 50.075 68.4782 50.0361 68.4918C49.9699 68.5151 49.9252 68.5541 49.9018 68.6086C49.8804 68.663 49.8697 68.7224 49.8697 68.7866V70.0709H51.8166V68.8158C51.8166 68.7535 51.804 68.6971 51.7787 68.6465C51.7534 68.594 51.7096 68.5531 51.6473 68.5239C51.5948 68.4986 51.5306 68.4762 51.4547 68.4568C51.3808 68.4373 51.3165 68.4256 51.2621 68.4217V68.2145H52.9813V68.4217C52.9268 68.4237 52.8597 68.4324 52.7799 68.448C52.7021 68.4636 52.6437 68.4782 52.6048 68.4918C52.5386 68.5151 52.4938 68.5541 52.4705 68.6086C52.4491 68.663 52.4384 68.7224 52.4384 68.7866V71.7727C52.4384 71.8408 52.4491 71.8982 52.4705 71.9449C52.4938 71.9916 52.5386 72.0325 52.6048 72.0675C52.6378 72.085 52.6962 72.1025 52.7799 72.12C52.8655 72.1375 52.9326 72.1473 52.9813 72.1492V72.3565Z" fill="white"/>
<path d="M60.0393 71.1363L59.9604 72.3565H56.5219V72.1492C56.5803 72.1453 56.6582 72.1375 56.7555 72.1259C56.8528 72.1122 56.916 72.0986 56.9452 72.085C57.0075 72.0558 57.0503 72.0179 57.0736 71.9712C57.0989 71.9245 57.1116 71.8651 57.1116 71.7931V68.8158C57.1116 68.7516 57.1009 68.6951 57.0795 68.6465C57.0581 68.5959 57.0133 68.555 56.9452 68.5239C56.8927 68.4986 56.8216 68.4762 56.7321 68.4568C56.6445 68.4373 56.5745 68.4256 56.5219 68.4217V68.2145H59.7269V69.2128H59.508C59.4691 69.0649 59.3844 68.9082 59.2541 68.7428C59.1256 68.5755 59.003 68.484 58.8863 68.4684C58.826 68.4607 58.754 68.4548 58.6703 68.4509C58.5866 68.447 58.4913 68.4451 58.3842 68.4451H57.7333V70.0914H58.2003C58.3502 70.0914 58.4591 70.0777 58.5272 70.0505C58.5973 70.0213 58.6586 69.9736 58.7111 69.9075C58.754 69.851 58.79 69.7761 58.8191 69.6827C58.8503 69.5874 58.8707 69.4979 58.8804 69.4142H59.0994V71.0342H58.8804C58.8727 70.9408 58.8512 70.8425 58.8162 70.7394C58.7831 70.6343 58.7481 70.5584 58.7111 70.5117C58.6508 70.4358 58.5817 70.3862 58.5039 70.3628C58.428 70.3395 58.3268 70.3278 58.2003 70.3278H57.7333V71.5713C57.7333 71.6958 57.7421 71.7941 57.7596 71.8661C57.7771 71.9381 57.8111 71.9926 57.8617 72.0295C57.9123 72.0665 57.9814 72.0908 58.069 72.1025C58.1565 72.1122 58.2811 72.1171 58.4426 72.1171C58.5068 72.1171 58.5915 72.1171 58.6965 72.1171C58.8016 72.1171 58.8902 72.1132 58.9622 72.1054C59.0361 72.0976 59.112 72.084 59.1898 72.0646C59.2696 72.0432 59.3261 72.0149 59.3591 71.9799C59.4487 71.8865 59.5421 71.7454 59.6394 71.5567C59.7386 71.366 59.8018 71.2259 59.8291 71.1363H60.0393Z" fill="white"/>
<path d="M66.817 69.3383H66.6156C66.5981 69.2682 66.566 69.1855 66.5193 69.0902C66.4745 68.9929 66.4239 68.9014 66.3675 68.8158C66.3091 68.7263 66.2449 68.6484 66.1748 68.5823C66.1067 68.5142 66.0406 68.4753 65.9763 68.4655C65.916 68.4577 65.8401 68.4519 65.7487 68.448C65.6572 68.4441 65.5726 68.4422 65.4947 68.4422H65.3254V71.7552C65.3254 71.8194 65.339 71.8787 65.3663 71.9332C65.3935 71.9857 65.4412 72.0266 65.5093 72.0558C65.5443 72.0694 65.6173 72.0879 65.7282 72.1113C65.8411 72.1346 65.9287 72.1473 65.9909 72.1492V72.3565H64.0353V72.1492C64.0897 72.1453 64.1725 72.1375 64.2834 72.1259C64.3962 72.1142 64.4741 72.0996 64.5169 72.0821C64.5811 72.0568 64.6278 72.0208 64.657 71.9741C64.6881 71.9254 64.7037 71.8612 64.7037 71.7814V68.4422H64.5344C64.4741 68.4422 64.3992 68.4441 64.3096 68.448C64.2201 68.45 64.1345 68.4558 64.0528 68.4655C63.9886 68.4733 63.9214 68.5122 63.8514 68.5823C63.7833 68.6504 63.72 68.7282 63.6616 68.8158C63.6033 68.9034 63.5517 68.9968 63.5069 69.096C63.4622 69.1933 63.431 69.2741 63.4135 69.3383H63.2092V68.2145H66.817V69.3383Z" fill="white"/>
<path d="M71.9514 72.3565H70.0862V72.1492C70.1387 72.1453 70.2146 72.1395 70.3139 72.1317C70.4131 72.1239 70.4832 72.1122 70.524 72.0967C70.5882 72.0714 70.635 72.0373 70.6641 71.9945C70.6933 71.9497 70.7079 71.8885 70.7079 71.8106V68.81C70.7079 68.7419 70.6972 68.6854 70.6758 68.6407C70.6544 68.594 70.6038 68.555 70.524 68.5239C70.4657 68.5006 70.3917 68.4791 70.3022 68.4597C70.2146 68.4383 70.1426 68.4256 70.0862 68.4217V68.2145H71.9514V68.4217C71.8911 68.4237 71.8191 68.4315 71.7354 68.4451C71.6517 68.4568 71.5787 68.4723 71.5165 68.4918C71.4425 68.5151 71.3929 68.5531 71.3676 68.6056C71.3423 68.6582 71.3297 68.7166 71.3297 68.7808V71.7785C71.3297 71.8427 71.3433 71.9001 71.3705 71.9507C71.3997 71.9994 71.4484 72.0383 71.5165 72.0675C71.5573 72.083 71.6235 72.1006 71.715 72.12C71.8084 72.1375 71.8872 72.1473 71.9514 72.1492V72.3565Z" fill="white"/>
<path d="M77.2843 72.4528C77.0371 72.4528 76.7997 72.4041 76.572 72.3068C76.3463 72.2095 76.1459 72.0694 75.9707 71.8865C75.7976 71.7036 75.6594 71.4808 75.5563 71.2181C75.4531 70.9534 75.4016 70.6557 75.4016 70.3249C75.4016 69.9941 75.4522 69.6944 75.5533 69.4259C75.6545 69.1554 75.7946 68.9228 75.9737 68.7282C76.1507 68.5356 76.3599 68.3867 76.6012 68.2816C76.8425 68.1766 77.1004 68.124 77.3748 68.124C77.5791 68.124 77.7639 68.1493 77.9293 68.1999C78.0947 68.2505 78.2524 68.3215 78.4022 68.413L78.5219 68.2145H78.7554L78.7817 69.6915H78.5423C78.5112 69.5475 78.4645 69.3918 78.4022 69.2244C78.3399 69.0551 78.267 68.9121 78.1833 68.7954C78.0899 68.663 77.979 68.5599 77.8505 68.486C77.7221 68.4101 77.5752 68.3721 77.4098 68.3721C77.221 68.3721 77.0449 68.414 76.8815 68.4976C76.7199 68.5813 76.5798 68.7049 76.4611 68.8683C76.3483 69.026 76.2597 69.2264 76.1955 69.4696C76.1313 69.7129 76.0992 69.9843 76.0992 70.284C76.0992 70.5487 76.1323 70.7919 76.1984 71.0137C76.2665 71.2336 76.3629 71.4273 76.4874 71.5946C76.6119 71.76 76.7589 71.8894 76.9282 71.9828C77.0994 72.0762 77.2901 72.1229 77.5003 72.1229C77.6579 72.1229 77.8029 72.0986 77.9352 72.05C78.0675 71.9994 78.1823 71.9332 78.2796 71.8515C78.3769 71.7659 78.4625 71.6686 78.5365 71.5596C78.6104 71.4506 78.6707 71.3319 78.7175 71.2035L78.9364 71.3086C78.769 71.7192 78.5472 72.013 78.2709 72.1901C77.9945 72.3652 77.6657 72.4528 77.2843 72.4528Z" fill="white"/>
<path d="M84.8676 70.4562C84.9552 70.5535 85.0194 70.6606 85.0603 70.7773C85.1031 70.8921 85.1245 71.0264 85.1245 71.1801C85.1245 71.546 84.9893 71.8476 84.7188 72.085C84.4483 72.3224 84.1126 72.4411 83.7117 72.4411C83.5269 72.4411 83.342 72.4129 83.1571 72.3565C82.9723 72.2981 82.8127 72.228 82.6784 72.1463L82.5529 72.3594H82.3194L82.2785 70.9408H82.515C82.5636 71.1159 82.6201 71.2745 82.6843 71.4166C82.7504 71.5567 82.837 71.688 82.9441 71.8106C83.0452 71.9254 83.163 72.0169 83.2972 72.085C83.4335 72.1531 83.5911 72.1872 83.7701 72.1872C83.9044 72.1872 84.0211 72.1696 84.1204 72.1346C84.2216 72.0996 84.3033 72.05 84.3656 71.9858C84.4278 71.9215 84.4736 71.8466 84.5028 71.761C84.5339 71.6734 84.5495 71.5732 84.5495 71.4603C84.5495 71.2949 84.5028 71.1412 84.4094 70.9992C84.3159 70.8552 84.1768 70.7462 83.992 70.6722C83.8655 70.6216 83.7205 70.5662 83.557 70.5059C83.3936 70.4436 83.2525 70.3852 83.1338 70.3307C82.9003 70.2256 82.7183 70.0884 82.588 69.9192C82.4595 69.7479 82.3953 69.5251 82.3953 69.2507C82.3953 69.0931 82.4274 68.9462 82.4916 68.81C82.5558 68.6737 82.6473 68.5521 82.766 68.4451C82.8789 68.3439 83.0122 68.2651 83.1659 68.2087C83.3196 68.1503 83.4802 68.1211 83.6475 68.1211C83.8382 68.1211 84.0085 68.1503 84.1583 68.2087C84.3101 68.267 84.4483 68.3351 84.5728 68.413L84.6925 68.2145H84.926L84.9494 69.5893H84.7129C84.6701 69.4317 84.6215 69.2809 84.567 69.1369C84.5144 68.9929 84.4454 68.8625 84.3597 68.7457C84.2761 68.6329 84.1739 68.5434 84.0532 68.4772C83.9326 68.4091 83.7847 68.375 83.6096 68.375C83.4247 68.375 83.2671 68.4344 83.1367 68.5531C83.0063 68.6718 82.9411 68.8168 82.9411 68.988C82.9411 69.167 82.983 69.3159 83.0667 69.4346C83.1503 69.5514 83.272 69.6477 83.4315 69.7236C83.5736 69.7917 83.7127 69.851 83.8489 69.9016C83.9871 69.9503 84.1204 70.0028 84.2488 70.0593C84.3656 70.1099 84.4775 70.1673 84.5845 70.2315C84.6935 70.2957 84.7878 70.3706 84.8676 70.4562Z" fill="white"/>
<path d="M75.0753 10.6184C75.9669 13.968 75.9669 17.5226 75.0753 20.8722C73.9092 25.2244 71.28 29.0069 67.6448 31.6729C70.777 27.4346 73.7263 19.1177 72.286 12.3046C70.777 11.9855 69.2452 11.8716 67.7134 11.9855C66.0901 12.0995 64.4897 12.4413 62.935 13.0109C62.8665 12.6919 62.7977 12.3729 62.7063 12.0539C62.5234 11.3703 62.3177 10.7095 62.0662 10.0487C63.8266 9.41068 65.6557 9.02332 67.5076 8.90938C69.6796 8.74985 71.8449 9.14608 73.9778 9.52463C74.2727 9.57687 74.8466 9.7525 74.8466 9.7525L75.0753 10.6184ZM27.5429 9.7525L27.3143 10.6184C26.4226 13.968 26.4226 17.5226 27.3143 20.8722C28.5031 25.2244 31.1095 29.0069 34.7447 31.6729C31.6125 27.4346 28.6632 19.1177 30.1035 12.3046C31.6125 11.9855 33.1443 11.8716 34.6761 11.9855C36.2994 12.0995 37.8999 12.4413 39.4545 13.0109C39.5231 12.6919 39.5918 12.3729 39.6832 12.0539C39.8661 11.3703 40.0718 10.7095 40.3233 10.0487C38.5629 9.4107 36.7338 9.02333 34.8819 8.90941C32.7099 8.74988 30.5151 8.95494 28.4117 9.52463L27.5429 9.7525ZM51.2062 34.8858C53.0131 34.7753 54.8157 32.8729 55.8245 31.7868C57.1734 30.488 58.3165 29.0297 59.2539 27.4119C60.9458 24.4952 61.906 21.1456 61.906 17.5454C61.906 13.9679 60.9458 10.5956 59.2539 7.70173C57.5163 4.69397 55.0014 2.18747 51.9835 0.432935L51.2061 0L50.4288 0.432935C47.4109 2.18747 44.8959 4.69397 43.1584 7.70173C41.4665 10.5956 40.5062 13.9679 40.5062 17.5454C40.5062 21.1456 41.4665 24.4952 43.1584 27.4119C44.0957 29.0297 45.2389 30.488 46.5878 31.7868C48.9817 33.9991 50.1387 34.8601 51.2061 34.8858H51.2062ZM51.2062 29.3259C51.8692 24.9737 53.8583 20.0063 57.0362 16.839C57.5849 16.2921 58.1108 15.8364 58.6595 15.4035C58.7511 16.1099 58.7967 16.8162 58.7967 17.5454C58.7967 20.5988 57.9965 23.4243 56.579 25.8852C55.2529 28.141 53.4239 30.0778 51.2062 31.5134C48.9885 30.0778 47.1594 28.141 45.8334 25.8852C44.4158 23.4243 43.6156 20.5987 43.6156 17.5454C43.6156 16.8162 43.6613 16.1098 43.7529 15.4035C44.3016 15.8364 44.8274 16.2921 45.3761 16.839C48.5541 20.0063 50.5432 24.9737 51.2062 29.3259L51.2062 29.3259ZM56.579 9.22841C57.1049 10.1399 57.5621 11.1197 57.9051 12.145C57.5393 12.3957 57.1735 12.6691 56.8077 12.9426C56.0989 13.4666 55.4587 14.0363 54.8414 14.6516C53.6068 15.882 52.5551 17.272 51.7092 18.7303C51.5263 19.0265 51.3663 19.3227 51.2062 19.6189C51.0461 19.3227 50.8861 19.0265 50.7032 18.7303C49.8573 17.272 48.8056 15.882 47.571 14.6515C46.9537 14.0363 46.3135 13.4667 45.6048 12.9426C45.239 12.6691 44.8732 12.3957 44.5074 12.145C44.8503 11.1197 45.3076 10.1399 45.8334 9.22841C47.1594 6.94979 48.9885 5.03577 51.2062 3.60022C53.4239 5.03577 55.253 6.94977 56.579 9.22841Z" fill="#CC9933"/>
<path d="M51.1947 41.7775C52.1461 41.7775 52.9174 41.0062 52.9174 40.0548C52.9174 39.1033 52.1461 38.332 51.1947 38.332C50.2432 38.332 49.4719 39.1033 49.4719 40.0548C49.4719 41.0062 50.2432 41.7775 51.1947 41.7775Z" fill="#CC9933"/>
</svg>
