<svg width="157" height="33" viewBox="0 0 157 33" fill="none" xmlns="http://www.w3.org/2000/svg">
<path d="M40.0027 7.87924C40.7392 10.3648 40.7392 13.0024 40.0027 15.488C39.0395 18.7175 36.8678 21.5242 33.8651 23.5025C36.4523 20.3575 38.8885 14.186 37.6987 9.13046C36.4523 8.89374 35.187 8.80918 33.9218 8.89373C32.581 8.97832 31.259 9.23189 29.9749 9.6546C29.9183 9.41788 29.8615 9.18117 29.786 8.94445C29.6349 8.43721 29.465 7.94688 29.2572 7.45652C30.7114 6.98309 32.2221 6.69565 33.7518 6.6111C35.5459 6.49273 37.3344 6.78675 39.0962 7.06764C39.3397 7.10641 39.8138 7.23673 39.8138 7.23673L40.0027 7.87924ZM0.741224 7.23673L0.55239 7.87924C-0.18413 10.3648 -0.18413 13.0024 0.55239 15.488C1.53438 18.7175 3.68724 21.5242 6.68992 23.5025C4.10272 20.3576 1.66658 14.186 2.85632 9.13046C4.10272 8.89374 5.36798 8.80918 6.63326 8.89373C7.97409 8.97832 9.29602 9.23189 10.5802 9.6546C10.6368 9.41788 10.6935 9.18118 10.769 8.94447C10.9201 8.43721 11.0901 7.94688 11.2978 7.45652C9.84367 6.9831 8.33289 6.69566 6.80322 6.61112C5.00917 6.49275 3.19624 6.64491 1.45885 7.06764L0.741224 7.23673ZM20.2869 25.8866C21.7795 25.8046 23.2684 24.3929 24.1016 23.587C25.2158 22.6233 26.1601 21.5411 26.9344 20.3407C28.3318 18.1764 29.125 15.6909 29.125 13.0194C29.125 10.3647 28.3318 7.86233 26.9344 5.71498C25.4991 3.48311 23.4218 1.62319 20.929 0.321255L20.2869 0L19.6449 0.321255C17.1521 1.62319 15.0747 3.48311 13.6395 5.71498C12.242 7.86233 11.4489 10.3647 11.4489 13.0194C11.4489 15.6909 12.242 18.1764 13.6395 20.3407C14.4138 21.5411 15.358 22.6233 16.4722 23.587C18.4496 25.2287 19.4052 25.8675 20.2869 25.8866H20.2869ZM20.2869 21.761C20.8346 18.5315 22.4776 14.8455 25.1025 12.4952C25.5558 12.0894 25.9901 11.7512 26.4434 11.43C26.519 11.9541 26.5567 12.4783 26.5567 13.0194C26.5567 15.2851 25.8957 17.3817 24.7249 19.2078C23.6295 20.8817 22.1188 22.3189 20.2869 23.3842C18.4551 22.3189 16.9444 20.8817 15.849 19.2078C14.6782 17.3817 14.0172 15.2851 14.0172 13.0194C14.0172 12.4783 14.0549 11.9541 14.1306 11.43C14.5838 11.7512 15.0182 12.0894 15.4714 12.4952C18.0963 14.8455 19.7393 18.5315 20.287 21.7609L20.2869 21.761ZM24.7249 6.84783C25.1592 7.52417 25.5369 8.25123 25.8202 9.01209C25.5181 9.19808 25.2159 9.40099 24.9137 9.60388C24.3283 9.99277 23.7995 10.4155 23.2897 10.872C22.2699 11.7851 21.4012 12.8165 20.7024 13.8986C20.5514 14.1184 20.4192 14.3382 20.287 14.558C20.1548 14.3382 20.0226 14.1184 19.8715 13.8986C19.1728 12.8165 18.3041 11.785 17.2843 10.872C16.7744 10.4155 16.2457 9.99278 15.6602 9.60388C15.3581 9.40099 15.0559 9.19808 14.7538 9.01209C15.037 8.25121 15.4147 7.52418 15.8491 6.84783C16.9444 5.15701 18.4552 3.73673 20.287 2.6715C22.1188 3.73673 23.6296 5.157 24.7249 6.84783Z" fill="#CC9933"/>
<path d="M20.2776 31.0001C21.0635 31.0001 21.7006 30.4277 21.7006 29.7217C21.7006 29.0157 21.0635 28.4434 20.2776 28.4434C19.4917 28.4434 18.8546 29.0157 18.8546 29.7217C18.8546 30.4277 19.4917 31.0001 20.2776 31.0001Z" fill="#CC9933"/>
<path d="M61.033 10.1739C61.033 10.8449 60.885 11.4404 60.5889 11.9603C60.2995 12.4742 59.8957 12.9004 59.3776 13.239C58.8661 13.5775 58.3042 13.8254 57.6918 13.9826C57.0794 14.1398 56.43 14.2183 55.7436 14.2183H54.1386V18.1177C54.1386 18.3293 54.1757 18.5167 54.2497 18.6799C54.3304 18.8371 54.4919 18.958 54.7342 19.0427C54.8553 19.085 55.0673 19.1243 55.3701 19.1606C55.6797 19.1968 55.9623 19.218 56.2181 19.224V19.8679H50.0707V19.224C50.2322 19.2119 50.4643 19.1908 50.7672 19.1606C51.0767 19.1303 51.2921 19.091 51.4132 19.0427C51.6151 18.9641 51.7598 18.8492 51.8473 18.6981C51.9415 18.5469 51.9886 18.3535 51.9886 18.1177V8.83179C51.9886 8.6202 51.9549 8.42976 51.8876 8.26049C51.8203 8.09122 51.6622 7.96426 51.4132 7.87962C51.1575 7.80103 50.9018 7.74662 50.646 7.71639C50.397 7.68012 50.1817 7.65594 50 7.64385V7H56.5411C57.8735 7 58.9536 7.29018 59.7813 7.87055C60.6158 8.44488 61.033 9.21266 61.033 10.1739ZM57.9644 12.3684C58.1932 12.0782 58.3446 11.779 58.4186 11.4707C58.4926 11.1563 58.5297 10.8752 58.5297 10.6273C58.5297 10.2827 58.4825 9.93207 58.3883 9.57539C58.3008 9.2187 58.1461 8.90736 57.924 8.64136C57.6885 8.35722 57.3789 8.13656 56.9953 7.97937C56.6117 7.82219 56.1339 7.7436 55.5619 7.7436H54.1386V13.4294H55.1683C55.895 13.4294 56.4839 13.3297 56.9348 13.1302C57.3924 12.9246 57.7356 12.6707 57.9644 12.3684Z" fill="#00003B"/>
<path d="M86.7686 19.8679H82.9125C82.0579 18.6648 81.284 17.625 80.5909 16.7484C79.9045 15.8718 79.1575 14.968 78.3499 14.037H76.8863V18.1177C76.8863 18.3293 76.9233 18.5167 76.9973 18.6799C77.0713 18.8371 77.2295 18.958 77.4717 19.0427C77.5929 19.085 77.8049 19.1243 78.1077 19.1606C78.4105 19.1968 78.6662 19.218 78.8748 19.224V19.8679H72.8183V19.224C72.9798 19.2119 73.212 19.1908 73.5148 19.1606C73.8243 19.1303 74.0397 19.091 74.1608 19.0427C74.3627 18.9641 74.5074 18.8492 74.5949 18.6981C74.6891 18.5469 74.7362 18.3535 74.7362 18.1177V8.81365C74.7362 8.60206 74.7025 8.41465 74.6353 8.25142C74.568 8.08819 74.4098 7.96426 74.1608 7.87962C73.9926 7.82521 73.7739 7.77685 73.5047 7.73453C73.2355 7.68617 73.0067 7.65594 72.8183 7.64385V7H79.43C80.0357 7 80.6043 7.05743 81.136 7.1723C81.6676 7.28112 82.1488 7.45946 82.5794 7.70733C82.9967 7.94915 83.3298 8.26654 83.5788 8.65949C83.8278 9.04641 83.9523 9.51493 83.9523 10.0651C83.9523 10.5608 83.8681 10.9991 83.6999 11.38C83.5317 11.7608 83.2827 12.0903 82.9529 12.3684C82.6501 12.6284 82.2867 12.8551 81.8627 13.0485C81.4388 13.2359 80.9711 13.3962 80.4596 13.5292C81.1662 14.3695 81.7517 15.0768 82.216 15.6511C82.6871 16.2255 83.2625 16.9237 83.9422 17.7459C84.2383 18.1086 84.5041 18.3777 84.7396 18.553C84.9819 18.7222 85.2208 18.8613 85.4563 18.9701C85.6313 19.0487 85.85 19.1092 86.1124 19.1515C86.3749 19.1938 86.5936 19.218 86.7686 19.224V19.8679ZM81.459 10.2736C81.459 9.49377 81.21 8.87713 80.712 8.42372C80.214 7.96426 79.5108 7.73453 78.6023 7.73453H76.8863V13.2571H78.2086C79.1373 13.2571 79.9112 12.9911 80.5303 12.4591C81.1494 11.921 81.459 11.1926 81.459 10.2736Z" fill="#00003B"/>
<path d="M103.722 19.8679H97.2718V19.224C97.4535 19.2119 97.716 19.1938 98.0592 19.1696C98.4024 19.1454 98.6447 19.1092 98.786 19.0608C99.008 18.9822 99.1696 18.8764 99.2705 18.7434C99.3714 18.6044 99.4219 18.4139 99.4219 18.1721V8.84993C99.4219 8.63833 99.3849 8.46301 99.3109 8.32397C99.2369 8.17888 99.0619 8.05796 98.786 7.96124C98.5841 7.88869 98.3284 7.82219 98.0188 7.76173C97.716 7.69523 97.467 7.65594 97.2718 7.64385V7H103.722V7.64385C103.513 7.64989 103.264 7.67407 102.975 7.71639C102.686 7.75267 102.433 7.80103 102.218 7.86149C101.962 7.93403 101.791 8.05192 101.703 8.21515C101.616 8.37838 101.572 8.55974 101.572 8.75924V18.0724C101.572 18.2719 101.619 18.4502 101.713 18.6074C101.814 18.7585 101.982 18.8794 102.218 18.9701C102.359 19.0185 102.588 19.0729 102.904 19.1333C103.227 19.1878 103.5 19.218 103.722 19.224V19.8679Z" fill="#00003B"/>
<path d="M132.89 19.8679H126.561V19.224C126.789 19.218 127.082 19.1968 127.439 19.1606C127.802 19.1243 128.051 19.0729 128.186 19.0064C128.394 18.8915 128.546 18.7615 128.64 18.6165C128.741 18.4653 128.791 18.2779 128.791 18.0542V8.69577H128.64L123.754 19.6593H123.25L118.596 8.46906H118.465V16.1499C118.465 16.8935 118.515 17.4587 118.616 17.8457C118.724 18.2326 118.886 18.5107 119.101 18.6799C119.249 18.8069 119.555 18.9278 120.019 19.0427C120.484 19.1575 120.787 19.218 120.928 19.224V19.8679H115.144V19.224C115.447 19.1998 115.763 19.1545 116.093 19.088C116.429 19.0215 116.688 18.9218 116.87 18.7888C117.106 18.6195 117.267 18.3595 117.355 18.0089C117.442 17.6582 117.486 17.0718 117.486 16.2496V9.66607C117.486 9.2852 117.435 8.97386 117.334 8.73204C117.233 8.49022 117.089 8.29374 116.9 8.1426C116.692 7.97937 116.436 7.85846 116.133 7.77987C115.83 7.70128 115.531 7.65594 115.235 7.64385V7H120.12L124.219 16.6486L127.721 8.57788C127.849 8.28165 127.957 7.97333 128.044 7.65292C128.139 7.32646 128.189 7.10882 128.196 7H132.869V7.64385C132.681 7.64989 132.439 7.6771 132.143 7.72546C131.853 7.77383 131.641 7.81917 131.507 7.86149C131.278 7.93403 131.123 8.05494 131.042 8.22422C130.962 8.39349 130.921 8.57788 130.921 8.77738V18.0542C130.921 18.2658 130.962 18.4442 131.042 18.5892C131.123 18.7343 131.278 18.8613 131.507 18.9701C131.628 19.0306 131.843 19.088 132.153 19.1424C132.462 19.1908 132.708 19.218 132.89 19.224V19.8679Z" fill="#00003B"/>
<path d="M157 16.0773L156.727 19.8679H144.836V19.224C145.038 19.2119 145.307 19.1878 145.644 19.1515C145.98 19.1092 146.199 19.0668 146.3 19.0245C146.515 18.9338 146.663 18.816 146.744 18.6709C146.832 18.5258 146.875 18.3414 146.875 18.1177V8.86806C146.875 8.66856 146.838 8.49324 146.764 8.3421C146.69 8.18492 146.536 8.05796 146.3 7.96124C146.118 7.88264 145.873 7.81312 145.563 7.75267C145.26 7.69221 145.018 7.65594 144.836 7.64385V7H155.92V10.1013H155.163C155.028 9.64189 154.736 9.15523 154.285 8.64136C153.84 8.12144 153.417 7.8373 153.013 7.78894C152.804 7.76476 152.555 7.74662 152.266 7.73453C151.976 7.72244 151.647 7.71639 151.277 7.71639H149.026V12.8309H150.641C151.159 12.8309 151.536 12.7886 151.771 12.7039C152.013 12.6133 152.225 12.4651 152.407 12.2596C152.555 12.0843 152.68 11.8515 152.781 11.5613C152.888 11.2651 152.959 10.987 152.993 10.7271H153.75V15.7599H152.993C152.966 15.4698 152.892 15.1645 152.771 14.8441C152.656 14.5176 152.535 14.2818 152.407 14.1367C152.198 13.901 151.96 13.7468 151.69 13.6742C151.428 13.6017 151.078 13.5654 150.641 13.5654H149.026V17.4285C149.026 17.8154 149.056 18.1207 149.116 18.3444C149.177 18.5681 149.295 18.7374 149.47 18.8522C149.645 18.9671 149.884 19.0427 150.186 19.0789C150.489 19.1092 150.92 19.1243 151.478 19.1243C151.701 19.1243 151.993 19.1243 152.357 19.1243C152.72 19.1243 153.026 19.1122 153.275 19.088C153.531 19.0638 153.793 19.0215 154.063 18.961C154.338 18.8945 154.534 18.8069 154.648 18.6981C154.958 18.4079 155.281 17.9696 155.617 17.3832C155.96 16.7907 156.179 16.3554 156.273 16.0773H157Z" fill="#00003B"/>
<path d="M55.2423 32.8888H53.1232V32.6496C53.3096 32.6384 53.4638 32.6159 53.5857 32.5822C53.71 32.5485 53.7722 32.507 53.7722 32.4575C53.7722 32.4373 53.7698 32.4126 53.765 32.3834C53.7602 32.3542 53.753 32.3284 53.7435 32.3059L53.3204 31.2345H51.5383C51.4713 31.3917 51.4164 31.5288 51.3733 31.6456C51.3327 31.7624 51.2956 31.8702 51.2622 31.969C51.2311 32.0656 51.2096 32.1442 51.1976 32.2049C51.1857 32.2655 51.1797 32.3149 51.1797 32.3531C51.1797 32.4429 51.255 32.5126 51.4056 32.562C51.5562 32.6114 51.7259 32.6406 51.9148 32.6496V32.8888H50V32.6496C50.0622 32.6451 50.1398 32.6327 50.2331 32.6125C50.3263 32.5901 50.4028 32.5609 50.4626 32.5249C50.5582 32.4643 50.6323 32.4014 50.6849 32.3363C50.7375 32.2689 50.7889 32.1768 50.8391 32.06C51.0948 31.4602 51.3769 30.7864 51.6853 30.0384C51.9937 29.2904 52.2686 28.6244 52.51 28.0404H52.7969L54.4929 32.1644C54.5287 32.252 54.5694 32.3228 54.6148 32.3767C54.6602 32.4306 54.7236 32.4834 54.8048 32.535C54.8598 32.5665 54.9315 32.5934 55.02 32.6159C55.1084 32.6361 55.1825 32.6473 55.2423 32.6496V32.8888ZM53.1913 30.9346L52.4204 29.0815L51.6638 30.9346H53.1913Z" fill="#00003B"/>
<path d="M63.3747 31.4805L63.2779 32.8888H59.0539V32.6496C59.1256 32.6451 59.2212 32.6361 59.3408 32.6226C59.4603 32.6069 59.538 32.5912 59.5738 32.5755C59.6503 32.5418 59.7029 32.498 59.7316 32.4441C59.7627 32.3902 59.7782 32.3217 59.7782 32.2385V28.8019C59.7782 28.7278 59.7651 28.6626 59.7388 28.6065C59.7125 28.5481 59.6575 28.5009 59.5738 28.465C59.5093 28.4358 59.422 28.4099 59.3121 28.3875C59.2045 28.365 59.1185 28.3515 59.0539 28.347V28.1078H62.991V29.2601H62.7221C62.6743 29.0894 62.5703 28.9086 62.4101 28.7177C62.2524 28.5245 62.1018 28.4189 61.9583 28.4009C61.8842 28.392 61.7958 28.3852 61.693 28.3807C61.5902 28.3762 61.4731 28.374 61.3416 28.374H60.542V30.2743H61.1157C61.2998 30.2743 61.4336 30.2585 61.5173 30.2271C61.6033 30.1934 61.6786 30.1384 61.7432 30.062C61.7958 29.9969 61.84 29.9104 61.8759 29.8026C61.9141 29.6925 61.9392 29.5892 61.9512 29.4926H62.2201V31.3625H61.9512C61.9416 31.2547 61.9153 31.1413 61.8723 31.0222C61.8316 30.9009 61.7886 30.8133 61.7432 30.7594C61.6691 30.6718 61.5842 30.6146 61.4886 30.5876C61.3954 30.5606 61.2711 30.5472 61.1157 30.5472H60.542V31.9825C60.542 32.1262 60.5527 32.2397 60.5742 32.3228C60.5958 32.4059 60.6376 32.4688 60.6997 32.5115C60.7619 32.5541 60.8468 32.5822 60.9543 32.5957C61.0619 32.6069 61.2149 32.6125 61.4133 32.6125C61.4922 32.6125 61.5962 32.6125 61.7253 32.6125C61.8543 32.6125 61.9631 32.608 62.0516 32.5991C62.1424 32.5901 62.2356 32.5743 62.3312 32.5519C62.4293 32.5272 62.4986 32.4946 62.5392 32.4542C62.6492 32.3464 62.7639 32.1835 62.8834 31.9656C63.0054 31.7455 63.083 31.5838 63.1165 31.4805H63.3747Z" fill="#00003B"/>
<path d="M70.7326 30.6954C70.8401 30.8077 70.919 30.9313 70.9692 31.066C71.0218 31.1986 71.0481 31.3535 71.0481 31.531C71.0481 31.9533 70.882 32.3014 70.5497 32.5755C70.2174 32.8495 69.805 32.9865 69.3126 32.9865C69.0855 32.9865 68.8584 32.954 68.6313 32.8888C68.4042 32.8214 68.2082 32.7406 68.0433 32.6462L67.8891 32.8922H67.6022L67.552 31.2547H67.8425C67.9022 31.4569 67.9716 31.6399 68.0504 31.8039C68.1317 31.9656 68.2381 32.1173 68.3696 32.2588C68.4939 32.3913 68.6385 32.4969 68.8034 32.5755C68.9708 32.6541 69.1644 32.6934 69.3843 32.6934C69.5493 32.6934 69.6927 32.6732 69.8146 32.6327C69.9389 32.5923 70.0393 32.535 70.1158 32.4609C70.1923 32.3868 70.2485 32.3003 70.2843 32.2015C70.3226 32.1004 70.3417 31.9847 70.3417 31.8544C70.3417 31.6635 70.2843 31.4861 70.1696 31.3221C70.0549 31.1559 69.8839 31.0301 69.6568 30.9447C69.5015 30.8863 69.3234 30.8223 69.1226 30.7527C68.9218 30.6808 68.7485 30.6134 68.6026 30.5505C68.3158 30.4292 68.0923 30.2709 67.9321 30.0755C67.7743 29.8778 67.6955 29.6206 67.6955 29.3039C67.6955 29.122 67.7349 28.9524 67.8138 28.7951C67.8927 28.6379 68.005 28.4975 68.1508 28.374C68.2895 28.2572 68.4532 28.1662 68.6421 28.1011C68.8309 28.0337 69.0281 28 69.2337 28C69.468 28 69.6772 28.0337 69.8612 28.1011C70.0477 28.1685 70.2174 28.2471 70.3704 28.3369L70.5174 28.1078H70.8043L70.833 29.6947H70.5425C70.4899 29.5128 70.4302 29.3387 70.3632 29.1725C70.2987 29.0063 70.2138 28.8558 70.1086 28.721C70.0058 28.5907 69.8804 28.4874 69.7321 28.4111C69.5839 28.3324 69.4023 28.2931 69.1871 28.2931C68.96 28.2931 68.7664 28.3616 68.6062 28.4987C68.4461 28.6357 68.366 28.803 68.366 29.0007C68.366 29.2073 68.4174 29.3792 68.5202 29.5162C68.623 29.6509 68.7724 29.7621 68.9684 29.8497C69.1429 29.9283 69.3138 29.9969 69.4811 30.0553C69.6509 30.1114 69.8146 30.1721 69.9724 30.2372C70.1158 30.2956 70.2533 30.3619 70.3847 30.436C70.5186 30.5101 70.6345 30.5966 70.7326 30.6954Z" fill="#00003B"/>
<path d="M79.496 29.405H79.2486C79.2271 29.3241 79.1876 29.2287 79.1303 29.1186C79.0753 29.0063 79.0131 28.9007 78.9438 28.8019C78.8721 28.6986 78.7932 28.6087 78.7072 28.5323C78.6235 28.4537 78.5422 28.4088 78.4633 28.3976C78.3892 28.3886 78.296 28.3819 78.1836 28.3774C78.0713 28.3729 77.9673 28.3706 77.8717 28.3706H77.6637V32.1947C77.6637 32.2689 77.6805 32.3374 77.7139 32.4003C77.7474 32.4609 77.806 32.5081 77.8896 32.5418C77.9326 32.5575 78.0223 32.5788 78.1585 32.6058C78.2972 32.6327 78.4048 32.6473 78.4813 32.6496V32.8888H76.0788V32.6496C76.1458 32.6451 76.2474 32.6361 76.3836 32.6226C76.5223 32.6092 76.6179 32.5923 76.6705 32.5721C76.7494 32.5429 76.8067 32.5013 76.8426 32.4474C76.8808 32.3913 76.9 32.3172 76.9 32.2251V28.3706H76.692C76.6179 28.3706 76.5259 28.3729 76.4159 28.3774C76.3059 28.3796 76.2008 28.3863 76.1004 28.3976C76.0215 28.4066 75.939 28.4515 75.8529 28.5323C75.7693 28.611 75.6916 28.7008 75.6199 28.8019C75.5482 28.903 75.4848 29.0108 75.4298 29.1253C75.3748 29.2376 75.3366 29.3309 75.3151 29.405H75.0641V28.1078H79.496V29.405Z" fill="#00003B"/>
<path d="M88.8475 32.8888H86.7356V32.6496C86.7929 32.6451 86.8754 32.6384 86.983 32.6294C87.0929 32.6204 87.1682 32.6069 87.2089 32.5889C87.2806 32.562 87.3332 32.5216 87.3666 32.4677C87.4001 32.4115 87.4168 32.3396 87.4168 32.252V30.5505H85.0252V32.215C85.0252 32.2936 85.0383 32.3598 85.0646 32.4137C85.0933 32.4677 85.1483 32.5148 85.2296 32.5553C85.2702 32.5755 85.3419 32.5957 85.4447 32.6159C85.5499 32.6361 85.6324 32.6473 85.6921 32.6496V32.8888H83.5801V32.6496C83.6375 32.6451 83.72 32.6384 83.8275 32.6294C83.9375 32.6204 84.0128 32.6069 84.0534 32.5889C84.1252 32.562 84.1778 32.5216 84.2112 32.4677C84.2447 32.4115 84.2614 32.3396 84.2614 32.252V28.8019C84.2614 28.73 84.2459 28.6649 84.2148 28.6065C84.1837 28.5458 84.1299 28.4987 84.0534 28.465C83.9889 28.4358 83.91 28.4099 83.8168 28.3875C83.726 28.365 83.6471 28.3515 83.5801 28.347V28.1078H85.6921V28.347C85.6252 28.3493 85.5427 28.3594 85.4447 28.3774C85.3491 28.3953 85.2774 28.4122 85.2296 28.4279C85.1483 28.4549 85.0933 28.4998 85.0646 28.5627C85.0383 28.6256 85.0252 28.6941 85.0252 28.7682V30.2507H87.4168V28.8019C87.4168 28.73 87.4013 28.6649 87.3702 28.6065C87.3391 28.5458 87.2854 28.4987 87.2089 28.465C87.1443 28.4358 87.0654 28.4099 86.9722 28.3875C86.8814 28.365 86.8025 28.3515 86.7356 28.347V28.1078H88.8475V28.347C88.7806 28.3493 88.6981 28.3594 88.6001 28.3774C88.5045 28.3953 88.4328 28.4122 88.385 28.4279C88.3037 28.4549 88.2487 28.4998 88.22 28.5627C88.1937 28.6256 88.1806 28.6941 88.1806 28.7682V32.215C88.1806 32.2936 88.1937 32.3598 88.22 32.4137C88.2487 32.4677 88.3037 32.5148 88.385 32.5553C88.4256 32.5755 88.4973 32.5957 88.6001 32.6159C88.7053 32.6361 88.7878 32.6473 88.8475 32.6496V32.8888Z" fill="#00003B"/>
<path d="M97.5178 31.4805L97.421 32.8888H93.197V32.6496C93.2687 32.6451 93.3643 32.6361 93.4839 32.6226C93.6034 32.6069 93.6811 32.5912 93.7169 32.5755C93.7934 32.5418 93.846 32.498 93.8747 32.4441C93.9058 32.3902 93.9213 32.3217 93.9213 32.2385V28.8019C93.9213 28.7278 93.9082 28.6626 93.8819 28.6065C93.8556 28.5481 93.8006 28.5009 93.7169 28.465C93.6524 28.4358 93.5651 28.4099 93.4552 28.3875C93.3476 28.365 93.2615 28.3515 93.197 28.347V28.1078H97.1341V29.2601H96.8652C96.8174 29.0894 96.7134 28.9086 96.5532 28.7177C96.3954 28.5245 96.2449 28.4189 96.1014 28.4009C96.0273 28.392 95.9389 28.3852 95.8361 28.3807C95.7333 28.3762 95.6162 28.374 95.4847 28.374H94.6851V30.2743H95.2588C95.4428 30.2743 95.5767 30.2585 95.6604 30.2271C95.7464 30.1934 95.8217 30.1384 95.8863 30.062C95.9389 29.9969 95.9831 29.9104 96.0189 29.8026C96.0572 29.6925 96.0823 29.5892 96.0942 29.4926H96.3632V31.3625H96.0942C96.0847 31.2547 96.0584 31.1413 96.0154 31.0222C95.9747 30.9009 95.9317 30.8133 95.8863 30.7594C95.8122 30.6718 95.7273 30.6146 95.6317 30.5876C95.5385 30.5606 95.4142 30.5472 95.2588 30.5472H94.6851V31.9825C94.6851 32.1262 94.6958 32.2397 94.7173 32.3228C94.7388 32.4059 94.7807 32.4688 94.8428 32.5115C94.905 32.5541 94.9898 32.5822 95.0974 32.5957C95.205 32.6069 95.358 32.6125 95.5564 32.6125C95.6353 32.6125 95.7393 32.6125 95.8683 32.6125C95.9974 32.6125 96.1062 32.608 96.1946 32.5991C96.2855 32.5901 96.3787 32.5743 96.4743 32.5519C96.5723 32.5272 96.6417 32.4946 96.6823 32.4542C96.7923 32.3464 96.907 32.1835 97.0265 31.9656C97.1484 31.7455 97.2261 31.5838 97.2596 31.4805H97.5178Z" fill="#00003B"/>
<path d="M105.844 29.405H105.596C105.575 29.3241 105.535 29.2287 105.478 29.1186C105.423 29.0063 105.361 28.9007 105.292 28.8019C105.22 28.6986 105.141 28.6087 105.055 28.5323C104.971 28.4537 104.89 28.4088 104.811 28.3976C104.737 28.3886 104.644 28.3819 104.531 28.3774C104.419 28.3729 104.315 28.3706 104.219 28.3706H104.011V32.1947C104.011 32.2689 104.028 32.3374 104.062 32.4003C104.095 32.4609 104.154 32.5081 104.237 32.5418C104.28 32.5575 104.37 32.5788 104.506 32.6058C104.645 32.6327 104.753 32.6473 104.829 32.6496V32.8888H102.427V32.6496C102.494 32.6451 102.595 32.6361 102.731 32.6226C102.87 32.6092 102.966 32.5923 103.018 32.5721C103.097 32.5429 103.155 32.5013 103.19 32.4474C103.229 32.3913 103.248 32.3172 103.248 32.2251V28.3706H103.04C102.966 28.3706 102.874 28.3729 102.764 28.3774C102.654 28.3796 102.549 28.3863 102.448 28.3976C102.369 28.4066 102.287 28.4515 102.201 28.5323C102.117 28.611 102.039 28.7008 101.968 28.8019C101.896 28.903 101.833 29.0108 101.778 29.1253C101.723 29.2376 101.684 29.3309 101.663 29.405H101.412V28.1078H105.844V29.405Z" fill="#00003B"/>
<path d="M112.151 32.8888H109.86V32.6496C109.924 32.6451 110.018 32.6384 110.139 32.6294C110.261 32.6204 110.347 32.6069 110.398 32.5889C110.477 32.5597 110.534 32.5204 110.57 32.471C110.606 32.4194 110.624 32.3486 110.624 32.2588V28.7951C110.624 28.7165 110.61 28.6514 110.584 28.5997C110.558 28.5458 110.496 28.5009 110.398 28.465C110.326 28.438 110.235 28.4133 110.125 28.3908C110.018 28.3661 109.929 28.3515 109.86 28.347V28.1078H112.151V28.347C112.077 28.3493 111.988 28.3583 111.886 28.374C111.783 28.3875 111.693 28.4054 111.617 28.4279C111.526 28.4549 111.465 28.4987 111.434 28.5593C111.403 28.6199 111.387 28.6873 111.387 28.7615V32.2217C111.387 32.2958 111.404 32.3621 111.437 32.4205C111.473 32.4766 111.533 32.5216 111.617 32.5553C111.667 32.5732 111.748 32.5934 111.861 32.6159C111.975 32.6361 112.072 32.6473 112.151 32.6496V32.8888Z" fill="#00003B"/>
<path d="M118.702 33C118.399 33 118.107 32.9438 117.827 32.8315C117.55 32.7192 117.304 32.5575 117.089 32.3464C116.876 32.1352 116.706 31.878 116.579 31.5748C116.453 31.2693 116.389 30.9257 116.389 30.5438C116.389 30.1619 116.451 29.816 116.576 29.5061C116.7 29.1938 116.872 28.9254 117.092 28.7008C117.31 28.4784 117.567 28.3066 117.863 28.1853C118.159 28.064 118.476 28.0034 118.813 28.0034C119.064 28.0034 119.291 28.0326 119.495 28.091C119.698 28.1494 119.891 28.2314 120.075 28.3369L120.222 28.1078H120.509L120.542 29.8127H120.248C120.209 29.6465 120.152 29.4668 120.075 29.2736C119.999 29.0782 119.909 28.9131 119.807 28.7783C119.692 28.6256 119.556 28.5065 119.398 28.4212C119.24 28.3336 119.06 28.2898 118.856 28.2898C118.624 28.2898 118.408 28.3381 118.207 28.4346C118.009 28.5312 117.837 28.6739 117.691 28.8625C117.552 29.0445 117.444 29.2758 117.365 29.5566C117.286 29.8374 117.246 30.1507 117.246 30.4966C117.246 30.8021 117.287 31.0829 117.368 31.3389C117.452 31.5928 117.57 31.8163 117.723 32.0094C117.876 32.2004 118.057 32.3497 118.265 32.4575C118.475 32.5654 118.709 32.6193 118.967 32.6193C119.161 32.6193 119.339 32.5912 119.502 32.535C119.664 32.4766 119.805 32.4003 119.925 32.3059C120.044 32.2071 120.15 32.0948 120.24 31.969C120.331 31.8432 120.405 31.7062 120.463 31.558L120.732 31.6792C120.526 32.1532 120.254 32.4924 119.914 32.6968C119.575 32.8989 119.171 33 118.702 33Z" fill="#00003B"/>
<path d="M128.018 30.6954C128.125 30.8077 128.204 30.9313 128.254 31.066C128.307 31.1986 128.333 31.3535 128.333 31.531C128.333 31.9533 128.167 32.3014 127.835 32.5755C127.503 32.8495 127.09 32.9865 126.598 32.9865C126.371 32.9865 126.144 32.954 125.917 32.8888C125.689 32.8214 125.493 32.7406 125.329 32.6462L125.174 32.8922H124.887L124.837 31.2547H125.128C125.187 31.4569 125.257 31.6399 125.336 31.8039C125.417 31.9656 125.523 32.1173 125.655 32.2588C125.779 32.3913 125.924 32.4969 126.089 32.5755C126.256 32.6541 126.45 32.6934 126.67 32.6934C126.835 32.6934 126.978 32.6732 127.1 32.6327C127.224 32.5923 127.325 32.535 127.401 32.4609C127.478 32.3868 127.534 32.3003 127.57 32.2015C127.608 32.1004 127.627 31.9847 127.627 31.8544C127.627 31.6635 127.57 31.4861 127.455 31.3221C127.34 31.1559 127.169 31.0301 126.942 30.9447C126.787 30.8863 126.609 30.8223 126.408 30.7527C126.207 30.6808 126.034 30.6134 125.888 30.5505C125.601 30.4292 125.378 30.2709 125.217 30.0755C125.06 29.8778 124.981 29.6206 124.981 29.3039C124.981 29.122 125.02 28.9524 125.099 28.7951C125.178 28.6379 125.29 28.4975 125.436 28.374C125.575 28.2572 125.738 28.1662 125.927 28.1011C126.116 28.0337 126.313 28 126.519 28C126.753 28 126.962 28.0337 127.146 28.1011C127.333 28.1685 127.503 28.2471 127.656 28.3369L127.803 28.1078H128.09L128.118 29.6947H127.828C127.775 29.5128 127.715 29.3387 127.648 29.1725C127.584 29.0063 127.499 28.8558 127.394 28.721C127.291 28.5907 127.166 28.4874 127.017 28.4111C126.869 28.3324 126.688 28.2931 126.472 28.2931C126.245 28.2931 126.052 28.3616 125.891 28.4987C125.731 28.6357 125.651 28.803 125.651 29.0007C125.651 29.2073 125.703 29.3792 125.805 29.5162C125.908 29.6509 126.058 29.7621 126.254 29.8497C126.428 29.9283 126.599 29.9969 126.766 30.0553C126.936 30.1114 127.1 30.1721 127.258 30.2372C127.401 30.2956 127.539 30.3619 127.67 30.436C127.804 30.5101 127.92 30.5966 128.018 30.6954Z" fill="#00003B"/>
</svg>
