<svg width="107" height="73" viewBox="0 0 107 73" fill="none" xmlns="http://www.w3.org/2000/svg">
<path d="M11.033 51.3192C11.033 52.0821 10.885 52.7591 10.5889 53.3501C10.2995 53.9343 9.89574 54.4189 9.37757 54.8038C8.86613 55.1886 8.30421 55.4704 7.69183 55.6491C7.07944 55.8278 6.43005 55.9172 5.74364 55.9172H4.13865V60.3502C4.13865 60.5907 4.17566 60.8038 4.24968 60.9894C4.33044 61.1681 4.49195 61.3055 4.73421 61.4017C4.85534 61.4499 5.06732 61.4945 5.37015 61.5358C5.67971 61.577 5.96234 61.6011 6.21807 61.6079V62.3399H0.0706598V61.6079C0.232168 61.5942 0.464336 61.5701 0.767164 61.5358C1.07672 61.5014 1.29207 61.4567 1.4132 61.4017C1.61508 61.3124 1.75977 61.1818 1.84725 61.01C1.94146 60.8382 1.98857 60.6182 1.98857 60.3502V49.7934C1.98857 49.5529 1.95492 49.3364 1.88763 49.1439C1.82033 48.9515 1.66219 48.8072 1.4132 48.7109C1.15748 48.6216 0.901754 48.5597 0.646033 48.5254C0.397041 48.4841 0.181697 48.4566 0 48.4429V47.7109H6.54108C7.87353 47.7109 8.95361 48.0408 9.78134 48.7006C10.6158 49.3536 11.033 50.2264 11.033 51.3192ZM7.96437 53.8141C8.19318 53.4842 8.34459 53.144 8.41862 52.7934C8.49264 52.4361 8.52965 52.1165 8.52965 51.8347C8.52965 51.4429 8.48255 51.0443 8.38833 50.6388C8.30085 50.2333 8.14607 49.8793 7.924 49.5769C7.68846 49.2539 7.37891 49.003 6.99532 48.8243C6.61174 48.6457 6.13395 48.5563 5.56194 48.5563H4.13865V55.0203H5.16826C5.89505 55.0203 6.48388 54.9069 6.93476 54.6801C7.39237 54.4464 7.73557 54.1577 7.96437 53.8141Z" fill="#00003B"/>
<path d="M36.7686 62.3399H32.9125C32.0579 60.9722 31.284 59.7901 30.5909 58.7935C29.9045 57.7969 29.1575 56.7694 28.3499 55.711H26.8863V60.3502C26.8863 60.5907 26.9233 60.8038 26.9973 60.9894C27.0713 61.1681 27.2295 61.3055 27.4717 61.4017C27.5929 61.4499 27.8049 61.4945 28.1077 61.5358C28.4105 61.577 28.6662 61.6011 28.8748 61.6079V62.3399H22.8183V61.6079C22.9798 61.5942 23.212 61.5701 23.5148 61.5358C23.8243 61.5014 24.0397 61.4567 24.1608 61.4017C24.3627 61.3124 24.5074 61.1818 24.5949 61.01C24.6891 60.8382 24.7362 60.6182 24.7362 60.3502V49.7728C24.7362 49.5323 24.7025 49.3192 24.6353 49.1336C24.568 48.9481 24.4098 48.8072 24.1608 48.7109C23.9926 48.6491 23.7739 48.5941 23.5047 48.546C23.2355 48.491 23.0067 48.4566 22.8183 48.4429V47.7109H29.43C30.0357 47.7109 30.6043 47.7762 31.136 47.9068C31.6676 48.0305 32.1488 48.2333 32.5794 48.5151C32.9967 48.79 33.3298 49.1508 33.5788 49.5975C33.8278 50.0374 33.9523 50.5701 33.9523 51.1955C33.9523 51.7591 33.8681 52.2574 33.6999 52.6904C33.5317 53.1233 33.2827 53.4979 32.9529 53.8141C32.6501 54.1096 32.2867 54.3673 31.8627 54.5873C31.4388 54.8003 30.9711 54.9825 30.4596 55.1337C31.1662 56.089 31.7517 56.8931 32.216 57.5461C32.6871 58.199 33.2625 58.9928 33.9422 59.9275C34.2383 60.3399 34.5041 60.6457 34.7396 60.845C34.9819 61.0375 35.2208 61.1956 35.4563 61.3193C35.6313 61.4086 35.85 61.4773 36.1124 61.5255C36.3749 61.5736 36.5936 61.6011 36.7686 61.6079V62.3399ZM31.459 51.4326C31.459 50.546 31.21 49.845 30.712 49.3295C30.214 48.8072 29.5108 48.546 28.6023 48.546H26.8863V54.8244H28.2086C29.1373 54.8244 29.9112 54.522 30.5303 53.9172C31.1494 53.3055 31.459 52.4773 31.459 51.4326Z" fill="#00003B"/>
<path d="M53.7221 62.3399H47.2718V61.6079C47.4535 61.5942 47.716 61.5736 48.0592 61.5461C48.4024 61.5186 48.6447 61.4773 48.786 61.4224C49.0081 61.333 49.1696 61.2127 49.2705 61.0615C49.3714 60.9035 49.4219 60.687 49.4219 60.412V49.814C49.4219 49.5735 49.3849 49.3742 49.3109 49.2161C49.2369 49.0512 49.0619 48.9137 48.786 48.8037C48.5841 48.7213 48.3284 48.6457 48.0188 48.5769C47.716 48.5013 47.467 48.4566 47.2718 48.4429V47.7109H53.7221V48.4429C53.5135 48.4498 53.2645 48.4773 52.9751 48.5254C52.6857 48.5666 52.4334 48.6216 52.218 48.6903C51.9623 48.7728 51.7907 48.9068 51.7032 49.0924C51.6157 49.278 51.572 49.4841 51.572 49.711V60.2986C51.572 60.5255 51.6191 60.7282 51.7133 60.9069C51.8143 61.0787 51.9825 61.2162 52.218 61.3193C52.3593 61.3743 52.5882 61.4361 52.9044 61.5048C53.2275 61.5667 53.5 61.6011 53.7221 61.6079V62.3399Z" fill="#00003B"/>
<path d="M82.8896 62.3399H76.5605V61.6079C76.7893 61.6011 77.0821 61.577 77.4387 61.5358C77.8021 61.4945 78.0511 61.4361 78.1857 61.3605C78.3943 61.2299 78.5457 61.0822 78.64 60.9172C78.7409 60.7454 78.7914 60.5323 78.7914 60.278V49.6388H78.64L73.7543 62.1028H73.2496L68.5962 49.3811H68.4649V58.1131C68.4649 58.9584 68.5154 59.601 68.6164 60.0409C68.724 60.4808 68.8855 60.7969 69.1009 60.9894C69.2489 61.1337 69.5551 61.2712 70.0195 61.4017C70.4838 61.5323 70.7866 61.6011 70.9279 61.6079V62.3399H65.1439V61.6079C65.4468 61.5804 65.763 61.5289 66.0928 61.4533C66.4293 61.3777 66.6884 61.2643 66.87 61.1131C67.1056 60.9206 67.2671 60.6251 67.3546 60.2265C67.4421 59.8279 67.4858 59.1612 67.4858 58.2265V50.7419C67.4858 50.3089 67.4353 49.9549 67.3344 49.68C67.2334 49.4051 67.0888 49.1817 66.9003 49.0099C66.6917 48.8243 66.436 48.6869 66.1332 48.5975C65.8303 48.5082 65.5309 48.4566 65.2348 48.4429V47.7109H70.1204L74.2187 58.6801L77.7214 49.5048C77.8492 49.168 77.9569 48.8175 78.0444 48.4532C78.1386 48.0821 78.1891 47.8346 78.1958 47.7109H82.8695V48.4429C82.681 48.4498 82.4388 48.4807 82.1427 48.5357C81.8533 48.5907 81.6413 48.6422 81.5067 48.6903C81.2779 48.7728 81.1232 48.9103 81.0424 49.1027C80.9616 49.2951 80.9213 49.5048 80.9213 49.7316V60.278C80.9213 60.5186 80.9616 60.7213 81.0424 60.8863C81.1232 61.0512 81.2779 61.1956 81.5067 61.3193C81.6279 61.388 81.8432 61.4533 82.1528 61.5151C82.4623 61.5701 82.7079 61.6011 82.8896 61.6079V62.3399Z" fill="#00003B"/>
<path d="M107 58.0306L106.727 62.3399H94.8364V61.6079C95.0383 61.5942 95.3075 61.5667 95.644 61.5255C95.9804 61.4773 96.1991 61.4292 96.3001 61.3811C96.5154 61.278 96.6635 61.144 96.7442 60.9791C96.8317 60.8141 96.8755 60.6045 96.8755 60.3502V49.8347C96.8755 49.6079 96.8384 49.4085 96.7644 49.2367C96.6904 49.058 96.5356 48.9137 96.3001 48.8037C96.1184 48.7144 95.8728 48.6353 95.5632 48.5666C95.2604 48.4979 95.0181 48.4566 94.8364 48.4429V47.7109H105.92V51.2367H105.163C105.028 50.7144 104.736 50.1611 104.285 49.5769C103.84 48.9859 103.417 48.6628 103.013 48.6079C102.804 48.5804 102.555 48.5597 102.266 48.546C101.976 48.5322 101.647 48.5254 101.277 48.5254H99.0255V54.3398H100.641C101.159 54.3398 101.536 54.2917 101.771 54.1955C102.013 54.0924 102.225 53.924 102.407 53.6904C102.555 53.491 102.68 53.2264 102.781 52.8965C102.888 52.5598 102.959 52.2436 102.993 51.9481H103.75V57.6698H102.993C102.966 57.3399 102.892 56.9928 102.771 56.6285C102.656 56.2574 102.535 55.9893 102.407 55.8244C102.198 55.5563 101.96 55.3811 101.69 55.2986C101.428 55.2161 101.078 55.1749 100.641 55.1749H99.0255V59.5667C99.0255 60.0065 99.0558 60.3536 99.1164 60.6079C99.1769 60.8622 99.2947 61.0547 99.4697 61.1853C99.6446 61.3158 99.8835 61.4017 100.186 61.443C100.489 61.4773 100.92 61.4945 101.478 61.4945C101.701 61.4945 101.993 61.4945 102.357 61.4945C102.72 61.4945 103.026 61.4808 103.275 61.4533C103.531 61.4258 103.793 61.3777 104.063 61.309C104.338 61.2334 104.534 61.1337 104.648 61.01C104.958 60.6801 105.281 60.1818 105.617 59.5151C105.96 58.8416 106.179 58.3467 106.273 58.0306H107Z" fill="#00003B"/>
<path d="M25.6251 72.3555H23.9V72.1482C24.0518 72.1385 24.1773 72.119 24.2766 72.0899C24.3778 72.0607 24.4284 72.0247 24.4284 71.9819C24.4284 71.9643 24.4264 71.9429 24.4225 71.9176C24.4186 71.8923 24.4128 71.87 24.405 71.8505L24.0606 70.9223H22.6099C22.5554 71.0585 22.5106 71.1772 22.4756 71.2784C22.4425 71.3796 22.4124 71.473 22.3851 71.5586C22.3598 71.6423 22.3423 71.7104 22.3326 71.7629C22.3229 71.8155 22.318 71.8583 22.318 71.8914C22.318 71.9692 22.3793 72.0295 22.5019 72.0723C22.6245 72.1152 22.7626 72.1404 22.9164 72.1482V72.3555H21.3577V72.1482C21.4083 72.1443 21.4715 72.1336 21.5474 72.1161C21.6233 72.0967 21.6856 72.0714 21.7342 72.0402C21.812 71.9877 21.8724 71.9332 21.9152 71.8768C21.958 71.8184 21.9998 71.7386 22.0407 71.6374C22.2489 71.1179 22.4785 70.5341 22.7296 69.8861C22.9806 69.2381 23.2044 68.6611 23.4009 68.1551H23.6344L25.0151 71.7279C25.0443 71.8038 25.0773 71.8651 25.1143 71.9118C25.1513 71.9585 25.2029 72.0042 25.269 72.049C25.3138 72.0762 25.3722 72.0996 25.4442 72.119C25.5162 72.1366 25.5765 72.1463 25.6251 72.1482V72.3555ZM23.9555 70.6625L23.3279 69.0571L22.712 70.6625H23.9555Z" fill="#00003B"/>
<path d="M32.2453 71.1354L32.1664 72.3555H28.728V72.1482C28.7863 72.1443 28.8642 72.1366 28.9615 72.1249C29.0588 72.1113 29.122 72.0976 29.1512 72.084C29.2135 72.0548 29.2563 72.0169 29.2796 71.9702C29.3049 71.9235 29.3176 71.8641 29.3176 71.7921V68.8148C29.3176 68.7506 29.3069 68.6942 29.2855 68.6455C29.2641 68.5949 29.2193 68.5541 29.1512 68.5229C29.0987 68.4976 29.0276 68.4753 28.9381 68.4558C28.8505 68.4363 28.7805 68.4247 28.728 68.4208V68.2135H31.9329V69.2118H31.714C31.6751 69.0639 31.5904 68.9073 31.4601 68.7418C31.3316 68.5745 31.209 68.483 31.0923 68.4675C31.032 68.4597 30.96 68.4538 30.8763 68.45C30.7926 68.4461 30.6973 68.4441 30.5902 68.4441H29.9393V70.0904H30.4063C30.5562 70.0904 30.6651 70.0768 30.7333 70.0495C30.8033 70.0203 30.8646 69.9727 30.9171 69.9065C30.96 69.8501 30.996 69.7751 31.0251 69.6817C31.0563 69.5864 31.0767 69.4969 31.0864 69.4132H31.3054V71.0332H31.0864C31.0787 70.9398 31.0573 70.8415 31.0222 70.7384C30.9891 70.6333 30.9541 70.5574 30.9171 70.5107C30.8568 70.4348 30.7877 70.3852 30.7099 70.3619C30.634 70.3385 30.5328 70.3268 30.4063 70.3268H29.9393V71.5703C29.9393 71.6948 29.9481 71.7931 29.9656 71.8651C29.9831 71.9371 30.0171 71.9916 30.0677 72.0286C30.1183 72.0655 30.1874 72.0899 30.275 72.1015C30.3625 72.1113 30.4871 72.1161 30.6486 72.1161C30.7128 72.1161 30.7975 72.1161 30.9025 72.1161C31.0076 72.1161 31.0962 72.1122 31.1682 72.1044C31.2421 72.0967 31.318 72.083 31.3958 72.0636C31.4756 72.0422 31.5321 72.014 31.5651 71.9789C31.6547 71.8855 31.7481 71.7444 31.8454 71.5557C31.9446 71.365 32.0078 71.2249 32.0351 71.1354H32.2453Z" fill="#00003B"/>
<path d="M38.2349 70.4553C38.3225 70.5526 38.3867 70.6596 38.4275 70.7763C38.4703 70.8911 38.4918 71.0254 38.4918 71.1792C38.4918 71.545 38.3565 71.8466 38.086 72.084C37.8155 72.3214 37.4799 72.4401 37.079 72.4401C36.8941 72.4401 36.7093 72.4119 36.5244 72.3555C36.3395 72.2971 36.18 72.227 36.0457 72.1453L35.9202 72.3584H35.6867L35.6458 70.9398H35.8822C35.9309 71.1149 35.9873 71.2735 36.0515 71.4156C36.1177 71.5557 36.2043 71.687 36.3113 71.8096C36.4125 71.9244 36.5302 72.0159 36.6645 72.084C36.8007 72.1521 36.9583 72.1862 37.1374 72.1862C37.2716 72.1862 37.3884 72.1687 37.4876 72.1336C37.5888 72.0986 37.6706 72.049 37.7328 71.9848C37.7951 71.9206 37.8408 71.8456 37.87 71.76C37.9012 71.6724 37.9167 71.5722 37.9167 71.4594C37.9167 71.294 37.87 71.1402 37.7766 70.9982C37.6832 70.8542 37.5441 70.7452 37.3592 70.6713C37.2327 70.6207 37.0878 70.5652 36.9243 70.5049C36.7608 70.4426 36.6197 70.3842 36.501 70.3297C36.2675 70.2247 36.0856 70.0875 35.9552 69.9182C35.8268 69.7469 35.7626 69.5241 35.7626 69.2497C35.7626 69.0921 35.7947 68.9452 35.8589 68.809C35.9231 68.6728 36.0146 68.5511 36.1333 68.4441C36.2461 68.3429 36.3794 68.2641 36.5332 68.2077C36.6869 68.1493 36.8474 68.1201 37.0148 68.1201C37.2055 68.1201 37.3758 68.1493 37.5256 68.2077C37.6774 68.2661 37.8155 68.3342 37.9401 68.412L38.0598 68.2135H38.2933L38.3166 69.5883H38.0802C38.0374 69.4307 37.9887 69.2799 37.9342 69.1359C37.8817 68.9919 37.8126 68.8615 37.727 68.7448C37.6433 68.6319 37.5412 68.5424 37.4205 68.4762C37.2999 68.4081 37.152 68.3741 36.9768 68.3741C36.792 68.3741 36.6343 68.4334 36.504 68.5521C36.3736 68.6708 36.3084 68.8158 36.3084 68.987C36.3084 69.1661 36.3502 69.3149 36.4339 69.4336C36.5176 69.5504 36.6392 69.6467 36.7988 69.7226C36.9408 69.7907 37.08 69.8501 37.2162 69.9007C37.3543 69.9493 37.4876 70.0019 37.6161 70.0583C37.7328 70.1089 37.8447 70.1663 37.9518 70.2305C38.0607 70.2947 38.1551 70.3696 38.2349 70.4553Z" fill="#00003B"/>
<path d="M45.3687 69.3373H45.1673C45.1498 69.2673 45.1177 69.1846 45.071 69.0892C45.0263 68.9919 44.9757 68.9004 44.9192 68.8148C44.8608 68.7253 44.7966 68.6475 44.7266 68.5813C44.6585 68.5132 44.5923 68.4743 44.5281 68.4646C44.4678 68.4568 44.3919 68.4509 44.3004 68.447C44.209 68.4431 44.1243 68.4412 44.0465 68.4412H43.8772V71.7542C43.8772 71.8184 43.8908 71.8777 43.918 71.9322C43.9453 71.9848 43.993 72.0256 44.0611 72.0548C44.0961 72.0684 44.1691 72.0869 44.28 72.1103C44.3928 72.1336 44.4804 72.1463 44.5427 72.1482V72.3555H42.587V72.1482C42.6415 72.1443 42.7242 72.1366 42.8351 72.1249C42.948 72.1132 43.0258 72.0986 43.0686 72.0811C43.1328 72.0558 43.1795 72.0198 43.2087 71.9731C43.2399 71.9244 43.2554 71.8602 43.2554 71.7804V68.4412H43.0861C43.0258 68.4412 42.9509 68.4431 42.8614 68.447C42.7719 68.449 42.6862 68.4548 42.6045 68.4646C42.5403 68.4723 42.4732 68.5113 42.4031 68.5813C42.335 68.6494 42.2718 68.7273 42.2134 68.8148C42.155 68.9024 42.1034 68.9958 42.0587 69.095C42.0139 69.1923 41.9828 69.2731 41.9653 69.3373H41.761V68.2135H45.3687V69.3373Z" fill="#00003B"/>
<path d="M52.9813 72.3555H51.2621V72.1482C51.3088 72.1443 51.3759 72.1385 51.4635 72.1307C51.553 72.1229 51.6143 72.1113 51.6473 72.0957C51.7057 72.0723 51.7485 72.0373 51.7758 71.9906C51.803 71.942 51.8166 71.8797 51.8166 71.8038V70.3297H49.8697V71.7717C49.8697 71.8398 49.8804 71.8972 49.9018 71.9439C49.9252 71.9906 49.9699 72.0315 50.0361 72.0665C50.0692 72.084 50.1276 72.1015 50.2112 72.119C50.2969 72.1366 50.364 72.1463 50.4126 72.1482V72.3555H48.6934V72.1482C48.7401 72.1443 48.8072 72.1385 48.8948 72.1307C48.9843 72.1229 49.0456 72.1113 49.0787 72.0957C49.1371 72.0723 49.1799 72.0373 49.2071 71.9906C49.2344 71.942 49.248 71.8797 49.248 71.8038V68.8148C49.248 68.7526 49.2353 68.6961 49.21 68.6455C49.1847 68.593 49.141 68.5521 49.0787 68.5229C49.0262 68.4976 48.9619 68.4753 48.886 68.4558C48.8121 68.4363 48.7479 68.4247 48.6934 68.4208V68.2135H50.4126V68.4208C50.3582 68.4227 50.291 68.4315 50.2112 68.447C50.1334 68.4626 50.075 68.4772 50.0361 68.4908C49.9699 68.5142 49.9252 68.5531 49.9018 68.6076C49.8804 68.6621 49.8697 68.7214 49.8697 68.7856V70.07H51.8166V68.8148C51.8166 68.7526 51.804 68.6961 51.7787 68.6455C51.7534 68.593 51.7096 68.5521 51.6473 68.5229C51.5948 68.4976 51.5306 68.4753 51.4547 68.4558C51.3808 68.4363 51.3165 68.4247 51.2621 68.4208V68.2135H52.9813V68.4208C52.9268 68.4227 52.8597 68.4315 52.7799 68.447C52.7021 68.4626 52.6437 68.4772 52.6048 68.4908C52.5386 68.5142 52.4938 68.5531 52.4705 68.6076C52.4491 68.6621 52.4384 68.7214 52.4384 68.7856V71.7717C52.4384 71.8398 52.4491 71.8972 52.4705 71.9439C52.4938 71.9906 52.5386 72.0315 52.6048 72.0665C52.6378 72.084 52.6962 72.1015 52.7799 72.119C52.8655 72.1366 52.9326 72.1463 52.9813 72.1482V72.3555Z" fill="#00003B"/>
<path d="M60.0393 71.1354L59.9604 72.3555H56.5219V72.1482C56.5803 72.1443 56.6582 72.1366 56.7555 72.1249C56.8528 72.1113 56.916 72.0976 56.9452 72.084C57.0075 72.0548 57.0503 72.0169 57.0736 71.9702C57.0989 71.9235 57.1116 71.8641 57.1116 71.7921V68.8148C57.1116 68.7506 57.1009 68.6942 57.0795 68.6455C57.0581 68.5949 57.0133 68.5541 56.9452 68.5229C56.8927 68.4976 56.8216 68.4753 56.7321 68.4558C56.6445 68.4363 56.5745 68.4247 56.5219 68.4208V68.2135H59.7269V69.2118H59.508C59.4691 69.0639 59.3844 68.9073 59.2541 68.7418C59.1256 68.5745 59.003 68.483 58.8863 68.4675C58.826 68.4597 58.754 68.4538 58.6703 68.45C58.5866 68.4461 58.4913 68.4441 58.3842 68.4441H57.7333V70.0904H58.2003C58.3502 70.0904 58.4591 70.0768 58.5272 70.0495C58.5973 70.0203 58.6586 69.9727 58.7111 69.9065C58.754 69.8501 58.79 69.7751 58.8191 69.6817C58.8503 69.5864 58.8707 69.4969 58.8804 69.4132H59.0994V71.0332H58.8804C58.8727 70.9398 58.8512 70.8415 58.8162 70.7384C58.7831 70.6333 58.7481 70.5574 58.7111 70.5107C58.6508 70.4348 58.5817 70.3852 58.5039 70.3619C58.428 70.3385 58.3268 70.3268 58.2003 70.3268H57.7333V71.5703C57.7333 71.6948 57.7421 71.7931 57.7596 71.8651C57.7771 71.9371 57.8111 71.9916 57.8617 72.0286C57.9123 72.0655 57.9814 72.0899 58.069 72.1015C58.1565 72.1113 58.2811 72.1161 58.4426 72.1161C58.5068 72.1161 58.5915 72.1161 58.6965 72.1161C58.8016 72.1161 58.8902 72.1122 58.9622 72.1044C59.0361 72.0967 59.112 72.083 59.1898 72.0636C59.2696 72.0422 59.3261 72.014 59.3591 71.9789C59.4487 71.8855 59.5421 71.7444 59.6394 71.5557C59.7386 71.365 59.8018 71.2249 59.8291 71.1354H60.0393Z" fill="#00003B"/>
<path d="M66.817 69.3373H66.6156C66.5981 69.2673 66.566 69.1846 66.5193 69.0892C66.4745 68.9919 66.4239 68.9004 66.3675 68.8148C66.3091 68.7253 66.2449 68.6475 66.1748 68.5813C66.1067 68.5132 66.0406 68.4743 65.9763 68.4646C65.916 68.4568 65.8401 68.4509 65.7487 68.447C65.6572 68.4431 65.5726 68.4412 65.4947 68.4412H65.3254V71.7542C65.3254 71.8184 65.339 71.8777 65.3663 71.9322C65.3935 71.9848 65.4412 72.0256 65.5093 72.0548C65.5443 72.0684 65.6173 72.0869 65.7282 72.1103C65.8411 72.1336 65.9287 72.1463 65.9909 72.1482V72.3555H64.0353V72.1482C64.0897 72.1443 64.1725 72.1366 64.2834 72.1249C64.3962 72.1132 64.4741 72.0986 64.5169 72.0811C64.5811 72.0558 64.6278 72.0198 64.657 71.9731C64.6881 71.9244 64.7037 71.8602 64.7037 71.7804V68.4412H64.5344C64.4741 68.4412 64.3992 68.4431 64.3096 68.447C64.2201 68.449 64.1345 68.4548 64.0528 68.4646C63.9886 68.4723 63.9214 68.5113 63.8514 68.5813C63.7833 68.6494 63.72 68.7273 63.6616 68.8148C63.6033 68.9024 63.5517 68.9958 63.5069 69.095C63.4622 69.1923 63.431 69.2731 63.4135 69.3373H63.2092V68.2135H66.817V69.3373Z" fill="#00003B"/>
<path d="M71.9514 72.3555H70.0862V72.1482C70.1387 72.1443 70.2146 72.1385 70.3139 72.1307C70.4131 72.1229 70.4832 72.1113 70.524 72.0957C70.5882 72.0704 70.635 72.0363 70.6641 71.9935C70.6933 71.9488 70.7079 71.8875 70.7079 71.8096V68.809C70.7079 68.7409 70.6972 68.6844 70.6758 68.6397C70.6544 68.593 70.6038 68.5541 70.524 68.5229C70.4657 68.4996 70.3917 68.4782 70.3022 68.4587C70.2146 68.4373 70.1426 68.4247 70.0862 68.4208V68.2135H71.9514V68.4208C71.8911 68.4227 71.8191 68.4305 71.7354 68.4441C71.6517 68.4558 71.5787 68.4714 71.5165 68.4908C71.4425 68.5142 71.3929 68.5521 71.3676 68.6047C71.3423 68.6572 71.3297 68.7156 71.3297 68.7798V71.7775C71.3297 71.8417 71.3433 71.8992 71.3705 71.9497C71.3997 71.9984 71.4484 72.0373 71.5165 72.0665C71.5573 72.0821 71.6235 72.0996 71.715 72.119C71.8084 72.1366 71.8872 72.1463 71.9514 72.1482V72.3555Z" fill="#00003B"/>
<path d="M77.2843 72.4518C77.0371 72.4518 76.7997 72.4032 76.572 72.3059C76.3463 72.2086 76.1459 72.0684 75.9707 71.8855C75.7976 71.7026 75.6594 71.4798 75.5563 71.2171C75.4531 70.9524 75.4016 70.6547 75.4016 70.3239C75.4016 69.9931 75.4522 69.6934 75.5533 69.4249C75.6545 69.1544 75.7946 68.9218 75.9737 68.7273C76.1507 68.5346 76.3599 68.3857 76.6012 68.2807C76.8425 68.1756 77.1004 68.123 77.3748 68.123C77.5791 68.123 77.7639 68.1483 77.9293 68.1989C78.0947 68.2495 78.2524 68.3206 78.4022 68.412L78.5219 68.2135H78.7554L78.7817 69.6905H78.5423C78.5112 69.5465 78.4645 69.3908 78.4022 69.2235C78.3399 69.0542 78.267 68.9111 78.1833 68.7944C78.0899 68.6621 77.979 68.5589 77.8505 68.485C77.7221 68.4091 77.5752 68.3711 77.4098 68.3711C77.221 68.3711 77.0449 68.413 76.8815 68.4967C76.7199 68.5803 76.5798 68.7039 76.4611 68.8674C76.3483 69.025 76.2597 69.2254 76.1955 69.4687C76.1313 69.7119 76.0992 69.9834 76.0992 70.283C76.0992 70.5477 76.1323 70.7909 76.1984 71.0128C76.2665 71.2327 76.3629 71.4263 76.4874 71.5936C76.6119 71.759 76.7589 71.8884 76.9282 71.9819C77.0994 72.0753 77.2901 72.122 77.5003 72.122C77.6579 72.122 77.8029 72.0976 77.9352 72.049C78.0675 71.9984 78.1823 71.9322 78.2796 71.8505C78.3769 71.7649 78.4625 71.6676 78.5365 71.5586C78.6104 71.4496 78.6707 71.3309 78.7175 71.2025L78.9364 71.3076C78.769 71.7182 78.5472 72.012 78.2709 72.1891C77.9945 72.3642 77.6657 72.4518 77.2843 72.4518Z" fill="#00003B"/>
<path d="M84.8676 70.4553C84.9552 70.5526 85.0194 70.6596 85.0603 70.7763C85.1031 70.8911 85.1245 71.0254 85.1245 71.1792C85.1245 71.545 84.9893 71.8466 84.7188 72.084C84.4483 72.3214 84.1126 72.4401 83.7117 72.4401C83.5269 72.4401 83.342 72.4119 83.1571 72.3555C82.9723 72.2971 82.8127 72.227 82.6784 72.1453L82.5529 72.3584H82.3194L82.2785 70.9398H82.515C82.5636 71.1149 82.6201 71.2735 82.6843 71.4156C82.7504 71.5557 82.837 71.687 82.9441 71.8096C83.0452 71.9244 83.163 72.0159 83.2972 72.084C83.4335 72.1521 83.5911 72.1862 83.7701 72.1862C83.9044 72.1862 84.0211 72.1687 84.1204 72.1336C84.2216 72.0986 84.3033 72.049 84.3656 71.9848C84.4278 71.9206 84.4736 71.8456 84.5028 71.76C84.5339 71.6724 84.5495 71.5722 84.5495 71.4594C84.5495 71.294 84.5028 71.1402 84.4094 70.9982C84.3159 70.8542 84.1768 70.7452 83.992 70.6713C83.8655 70.6207 83.7205 70.5652 83.557 70.5049C83.3936 70.4426 83.2525 70.3842 83.1338 70.3297C82.9003 70.2247 82.7183 70.0875 82.588 69.9182C82.4595 69.7469 82.3953 69.5241 82.3953 69.2497C82.3953 69.0921 82.4274 68.9452 82.4916 68.809C82.5558 68.6728 82.6473 68.5511 82.766 68.4441C82.8789 68.3429 83.0122 68.2641 83.1659 68.2077C83.3196 68.1493 83.4802 68.1201 83.6475 68.1201C83.8382 68.1201 84.0085 68.1493 84.1583 68.2077C84.3101 68.2661 84.4483 68.3342 84.5728 68.412L84.6925 68.2135H84.926L84.9494 69.5883H84.7129C84.6701 69.4307 84.6215 69.2799 84.567 69.1359C84.5144 68.9919 84.4454 68.8615 84.3597 68.7448C84.2761 68.6319 84.1739 68.5424 84.0532 68.4762C83.9326 68.4081 83.7847 68.3741 83.6096 68.3741C83.4247 68.3741 83.2671 68.4334 83.1367 68.5521C83.0063 68.6708 82.9411 68.8158 82.9411 68.987C82.9411 69.1661 82.983 69.3149 83.0667 69.4336C83.1503 69.5504 83.272 69.6467 83.4315 69.7226C83.5736 69.7907 83.7127 69.8501 83.8489 69.9007C83.9871 69.9493 84.1204 70.0019 84.2488 70.0583C84.3656 70.1089 84.4775 70.1663 84.5845 70.2305C84.6935 70.2947 84.7878 70.3696 84.8676 70.4553Z" fill="#00003B"/>
<path d="M75.0753 11.164C75.9669 14.5849 75.9669 18.2153 75.0753 21.6363C73.9092 26.0812 71.28 29.9443 67.6448 32.6671C70.777 28.3385 73.7263 19.8443 72.286 12.8861C70.777 12.5603 69.2452 12.4439 67.7134 12.5602C66.0901 12.6767 64.4897 13.0257 62.935 13.6075C62.8665 13.2817 62.7977 12.9559 62.7063 12.6301C62.5234 11.9319 62.3177 11.257 62.0662 10.5821C63.8266 9.93053 65.6557 9.53492 67.5076 9.41855C69.6796 9.25562 71.8449 9.6603 73.9778 10.0469C74.2727 10.1003 74.8466 10.2796 74.8466 10.2796L75.0753 11.164ZM27.5429 10.2796L27.3143 11.164C26.4226 14.5849 26.4226 18.2153 27.3143 21.6363C28.5031 26.0812 31.1095 29.9443 34.7447 32.6671C31.6125 28.3385 28.6632 19.8443 30.1035 12.8861C31.6125 12.5603 33.1443 12.4439 34.6761 12.5602C36.2994 12.6767 37.8999 13.0257 39.4545 13.6075C39.5231 13.2817 39.5918 12.9559 39.6832 12.6301C39.8661 11.9319 40.0718 11.257 40.3233 10.5821C38.5629 9.93055 36.7338 9.53493 34.8819 9.41858C32.7099 9.25565 30.5151 9.46508 28.4117 10.0469L27.5429 10.2796ZM51.2062 35.9484C53.0131 35.8356 54.8157 33.8926 55.8245 32.7834C57.1734 31.4569 58.3165 29.9675 59.2539 28.3153C60.9458 25.3365 61.906 21.9155 61.906 18.2386C61.906 14.5849 60.9458 11.1407 59.2539 8.18517C57.5163 5.11332 55.0014 2.55342 51.9835 0.761496L51.2061 0.319336L50.4288 0.761496C47.4109 2.55342 44.8959 5.11332 43.1584 8.18517C41.4665 11.1407 40.5062 14.5849 40.5062 18.2386C40.5062 21.9155 41.4665 25.3365 43.1584 28.3153C44.0957 29.9675 45.2389 31.4569 46.5878 32.7834C48.9817 35.0429 50.1387 35.9222 51.2061 35.9484H51.2062ZM51.2062 30.2701C51.8692 25.8252 53.8583 20.7519 57.0362 17.5171C57.5849 16.9586 58.1108 16.4932 58.6595 16.051C58.7511 16.7724 58.7967 17.4939 58.7967 18.2386C58.7967 21.357 57.9965 24.2427 56.579 26.7561C55.2529 29.06 53.4239 31.0381 51.2062 32.5042C48.9885 31.0381 47.1594 29.06 45.8334 26.7561C44.4158 24.2427 43.6156 21.357 43.6156 18.2386C43.6156 17.4939 43.6613 16.7724 43.7529 16.051C44.3016 16.4932 44.8274 16.9586 45.3761 17.5171C48.5541 20.7519 50.5432 25.8252 51.2062 30.2701L51.2062 30.2701ZM56.579 9.74437C57.1049 10.6752 57.5621 11.6759 57.9051 12.7232C57.5393 12.9791 57.1735 13.2584 56.8077 13.5377C56.0989 14.0729 55.4587 14.6547 54.8414 15.2831C53.6068 16.5398 52.5551 17.9593 51.7092 19.4487C51.5263 19.7513 51.3663 20.0538 51.2062 20.3563C51.0461 20.0538 50.8861 19.7512 50.7032 19.4487C49.8573 17.9593 48.8056 16.5397 47.571 15.283C46.9537 14.6547 46.3135 14.0729 45.6048 13.5377C45.239 13.2584 44.8732 12.9791 44.5074 12.7232C44.8503 11.6759 45.3076 10.6753 45.8334 9.74437C47.1594 7.41721 48.9885 5.4624 51.2062 3.99627C53.4239 5.4624 55.253 7.41719 56.579 9.74437Z" fill="#CC9933"/>
<path d="M51.1947 42.9867C52.1461 42.9867 52.9174 42.1989 52.9174 41.2272C52.9174 40.2555 52.1461 39.4678 51.1947 39.4678C50.2432 39.4678 49.4719 40.2555 49.4719 41.2272C49.4719 42.1989 50.2432 42.9867 51.1947 42.9867Z" fill="#CC9933"/>
</svg>
