<svg width="20" height="20" viewBox="0 0 20 20" fill="none" xmlns="http://www.w3.org/2000/svg">
<path d="M16.3251 5.57435C15.4944 5.39168 14.7429 4.95055 14.1785 4.31426C13.6141 3.67797 13.2657 2.87924 13.1835 2.03268V1.66602H10.3085V13.0577C10.309 13.5632 10.1506 14.056 9.85549 14.4664C9.56041 14.8768 9.14368 15.1839 8.66434 15.3443C8.185 15.5047 7.66733 15.5102 7.18469 15.3601C6.70204 15.2099 6.27887 14.9117 5.97512 14.5077C5.70299 14.1501 5.53636 13.7234 5.49406 13.276C5.45176 12.8286 5.53549 12.3783 5.73577 11.976C5.93605 11.5737 6.2449 11.2355 6.62738 10.9996C7.00987 10.7636 7.45073 10.6394 7.90012 10.641C8.14865 10.6396 8.39595 10.6761 8.63345 10.7493V7.83268C8.35707 7.79845 8.07854 7.78453 7.80012 7.79102C6.77455 7.81842 5.77922 8.1443 4.93602 8.72874C4.09283 9.31318 3.43836 10.1308 3.05277 11.0816C2.66717 12.0323 2.56719 13.0748 2.76505 14.0815C2.96292 15.0882 3.45005 16.0153 4.16679 16.7494C4.90136 17.4962 5.84136 18.0078 6.86737 18.2192C7.89337 18.4306 8.95905 18.3322 9.929 17.9365C10.899 17.5408 11.7294 16.8658 12.3148 15.9971C12.9002 15.1284 13.2142 14.1052 13.2168 13.0577V7.22435C14.3763 8.05264 15.7668 8.49572 17.1918 8.49102V5.65768C16.9119 5.65884 16.6326 5.63091 16.3585 5.57435H16.3251Z" fill="#CC9933"/>
</svg>
