<?xml version="1.0" encoding="UTF-8"?>
<svg width="94px" height="67px" viewBox="0 0 94 67" version="1.1" xmlns="http://www.w3.org/2000/svg" xmlns:xlink="http://www.w3.org/1999/xlink">
    <!-- Generator: Sketch 53.2 (72643) - https://sketchapp.com -->
    <title>icon-trust</title>
    <desc>Created with Sketch.</desc>
    <g id="Website" stroke="none" stroke-width="1" fill="none" fill-rule="evenodd">
        <g id="WakeUp-One-Page-site" transform="translate(-793.000000, -2225.000000)" stroke="#FCB639" stroke-width="1.56">
            <g id="icon-trust" transform="translate(793.000000, 2226.000000)">
                <g id="Group-5" transform="translate(0.000000, 0.422571)">
                    <polyline id="Stroke-1" points="92.6647991 0.258352683 92.6635966 0.258352683 63.7245621 17.4320649 78.6294155 44.2378259 91.9143853 37.1747283"></polyline>
                    <polyline id="Stroke-3" points="1.29169784 37.2810088 14.5417927 44.1971356 29.3263875 17.39016 0.394568534 0.291755122"></polyline>
                </g>
                <path d="M55.4903341,43.2685478 L67.2865022,51.8365771" id="Stroke-6"></path>
                <g id="Group-23" transform="translate(16.836207, 19.856718)">
                    <path d="M39.3293793,40.3383644 C39.3293793,40.3383644 40.4321509,42.5890815 37.8465905,44.0575741 C35.2610302,45.5260668 29.6052672,42.7518424 29.6052672,42.7518424" id="Stroke-7"></path>
                    <path d="M20.2336332,4.58257171 C16.5994177,4.94817659 11.3753832,0.0191912195 11.3753832,0.0191912195 L0.258676293,20.0339327 L5.64385733,25.1876254" id="Stroke-9"></path>
                    <path d="M29.9294845,37.12092 C29.2259716,39.7639639 27.8285664,44.6285737 25.7276483,45.1994517 C23.6279328,45.7715444 21.1229457,44.9553102 20.7188767,41.5276127 L26.3746397,33.6944371 C26.3746397,33.6944371 30.9396569,33.3264029 29.9294845,37.12092 Z" id="Stroke-11"></path>
                    <path d="M9.93889397,23.4118302 C12.5593293,21.168401 16.8008509,24.1879815 15.0186181,26.3500302 C14.2116828,27.33024 9.73084655,32.8531815 9.73084655,32.8531815 C9.73084655,32.8531815 6.33835086,33.2855912 5.77193276,30.8381034 C5.20671724,28.389401 5.77193276,27.4104059 5.77193276,27.4104059 C5.77193276,27.4104059 8.1747,24.9240498 9.93889397,23.4118302 Z" id="Stroke-13"></path>
                    <path d="M21.6887625,24.2278215 C22.7482409,25.351358 22.6989349,27.492758 22.0928315,28.3077776 C20.8806246,29.9402459 14.6584435,38.100158 14.6584435,38.100158 C14.6584435,38.100158 11.6159004,38.8350117 10.2702065,36.7130459 C8.92330991,34.59108 9.73144784,32.8529385 9.73144784,32.8529385 L15.0180168,26.3497873 C15.0180168,26.3497873 18.6859047,21.04548 21.6887625,24.2278215 Z" id="Stroke-15"></path>
                    <path d="M22.2770677,27.9761824 C22.2770677,27.9761824 26.2937056,26.8805824 26.7783478,31.327358 C26.7783478,31.327358 26.9815849,32.6330898 26.3742789,33.69468 C25.4663263,35.2773483 20.7185159,41.5278556 20.7185159,41.5278556 C20.7185159,41.5278556 17.5821711,42.6477483 16.0055806,41.201119 C14.4313953,39.7544898 14.7079901,38.4864117 15.0868047,37.5389971 C15.466822,36.5903678 22.2770677,27.9761824 22.2770677,27.9761824 Z" id="Stroke-17"></path>
                    <path d="M35.342325,29.7767561 L45.1987216,35.928878" id="Stroke-19"></path>
                    <path d="M53.9858987,25.5812883 C55.4290022,24.6180834 57.4782091,22.2932737 58.5869935,20.0340541 L48.4708384,1.82061512 C43.7110022,1.7805322 33.5647823,-0.0887897561 31.3832909,0.319327317 C29.2017996,0.72744439 24.6776703,2.11455659 23.6278125,2.93079073 C22.5767522,3.74581024 16.2752004,15.9868932 16.2752004,15.9868932 C16.2752004,15.9868932 19.0219073,19.8214932 23.3031142,16.9658883 C27.5867263,14.1090688 28.3130884,10.1930883 28.3130884,10.1930883 L30.8986487,10.3558493 L50.5140323,22.7852005 C50.5140323,22.7852005 57.5611875,26.764342 54.8938513,30.7556298 C54.0748901,31.979981 52.2277177,32.3164346 50.4502953,31.979981 C50.4502953,31.979981 50.6463168,34.2282688 49.0769418,35.4076785 C47.5075668,36.5870883 45.1986013,35.9287566 45.1986013,35.9287566 C45.1986013,35.9287566 46.3314375,38.6373907 44.0681703,40.1398932 C41.4729892,41.8646737 39.9661487,40.7423517 37.8964978,39.3552395 C35.3422047,37.6413907 32.2720022,35.489059 32.2720022,35.489059" id="Stroke-21"></path>
                </g>
            </g>
        </g>
    </g>
</svg>