<?xml version="1.0" encoding="UTF-8"?>
<svg width="95px" height="75px" viewBox="0 0 95 75" version="1.1" xmlns="http://www.w3.org/2000/svg" xmlns:xlink="http://www.w3.org/1999/xlink">
    <!-- Generator: Sketch 53.2 (72643) - https://sketchapp.com -->
    <title>icon-ownership</title>
    <desc>Created with Sketch.</desc>
    <g id="Website" stroke="none" stroke-width="1" fill="none" fill-rule="evenodd">
        <g id="WakeUp-One-Page-site" transform="translate(-193.000000, -1969.000000)" stroke="#FCB639" stroke-width="1.56">
            <g id="icon-ownership" transform="translate(193.000000, 1969.000000)">
                <path d="M0.262838462,62.317429 C0.262838462,62.317429 8.69994103,59.3395258 17.3298641,63.8535258 C25.9597872,68.3675258 45.1610949,72.5926871 45.1610949,72.5926871 C45.1610949,72.5926871 50.4949923,74.9941065 54.6647359,72.5926871 C58.8344795,70.1924613 70.2856077,67.6406548 73.4755821,66.0627839 C80.4508641,62.6122355 91.3223256,49.8400742 92.6310949,43.9033645 C92.9757615,42.3398161 89.4073769,38.4130419 83.5613,45.5098806 C78.1418385,52.0899129 73.2827615,55.0188806 73.2827615,55.0188806" id="Stroke-1"></path>
                <path d="M0.262838462,45.2225935 C0.262838462,45.2225935 13.8398128,40.4209484 22.5673513,41.2850774 C31.2936846,42.1492065 39.2463256,42.533529 50.4949923,51.080529 C50.4949923,51.080529 57.6703256,56.3631742 73.2827615,55.0192387 C73.2827615,55.0192387 78.6383513,61.8725935 67.1727615,63.9493677 C59.2213256,65.3899806 52.8208897,63.0852387 48.2630949,60.8771742 C43.7065051,58.6679161 34.3968897,60.6850129 34.3968897,60.6850129" id="Stroke-3"></path>
                <path d="M28.7870179,11.941929 C28.7870179,9.38892903 30.8791205,7.31215484 33.4629154,7.31215484 C36.0358641,7.31215484 38.1376077,9.38892903 38.1376077,11.941929 L38.1376077,19.2368968 C38.1376077,21.7898968 36.0358641,23.8654774 33.4629154,23.8654774 C30.8791205,23.8654774 28.7870179,21.7898968 28.7870179,19.2368968 L28.7870179,11.941929 Z M33.4629154,30.4025419 C39.6319667,30.4025419 44.654941,25.4696065 44.729659,19.378929 L70.1940179,19.378929 L70.1940179,26.604671 C70.1940179,27.3840581 70.8363513,28.0190258 71.6293256,28.0190258 L76.8571718,28.0190258 C77.6513513,28.0190258 78.2924795,27.3840581 78.2924795,26.604671 L78.2924795,23.4584774 L85.2291974,23.4584774 L85.2291974,26.604671 C85.2291974,27.3840581 85.8703256,28.0190258 86.6633,28.0190258 L91.9031974,28.0190258 C92.6937615,28.0190258 93.3360949,27.3840581 93.3360949,26.604671 L93.3360949,13.2082839 C93.3360949,12.422929 92.6925564,11.7867677 91.9031974,11.7867677 L44.729659,11.7975097 C44.654941,5.70683226 39.6319667,0.776283871 33.4629154,0.776283871 C27.2372231,0.776283871 22.1841205,5.7868 22.1841205,11.941929 L22.1841205,19.2368968 C22.1841205,25.3908323 27.2372231,30.4025419 33.4629154,30.4025419 Z" id="Stroke-5"></path>
            </g>
        </g>
    </g>
</svg>